{
	"asset":{
		"generator":"Khronos glTF Blender I/O v5.2.39",
		"version":"2.0"
	},
	"scene":0,
	"scenes":[
		{
			"name":"Scene",
			"nodes":[
				33,
				34
			]
		}
	],
	"nodes":[
		{
			"name":"head",
			"rotation":[
				0.7071067690849304,
				-3.090862321641907e-08,
				4.7485355025855824e-07,
				0.7071067690849304
			],
			"translation":[
				0,
				4.720926284790039,
				0
			]
		},
		{
			"children":[
				0
			],
			"name":"neck",
			"translation":[
				0,
				5.304948806762695,
				0
			]
		},
		{
			"name":"front_paw.L",
			"rotation":[
				0.4385824501514435,
				-0.11222781985998154,
				-0.22886161506175995,
				0.8617845773696899
			],
			"translation":[
				2.2351741790771484e-07,
				4.021790027618408,
				9.685754776000977e-08
			]
		},
		{
			"children":[
				2
			],
			"name":"forearm.L",
			"rotation":[
				0.16225025057792664,
				-0.014471921138465405,
				-0.11231682449579239,
				0.9802297353744507
			],
			"translation":[
				1.4901161193847656e-07,
				3.8564200401306152,
				4.76837158203125e-07
			]
		},
		{
			"children":[
				3
			],
			"name":"upper_arm.L",
			"rotation":[
				-0.07711084932088852,
				-0.0003198684426024556,
				-0.20160141587257385,
				0.9764274954795837
			],
			"scale":[
				1,
				1.0000001192092896,
				1
			],
			"translation":[
				-4.76837158203125e-07,
				5.563271999359131,
				5.364418029785156e-07
			]
		},
		{
			"children":[
				4
			],
			"name":"shoulder.L",
			"rotation":[
				-0.7563927173614502,
				0.06616275757551193,
				0.2560513913631439,
				0.5982726812362671
			],
			"translation":[
				0,
				5.304948806762695,
				0
			]
		},
		{
			"name":"front_paw.R",
			"rotation":[
				0.43858250975608826,
				0.11222793906927109,
				0.2288617044687271,
				0.8617845177650452
			],
			"scale":[
				1,
				1,
				0.9999999403953552
			],
			"translation":[
				-5.960464477539063e-08,
				4.021790027618408,
				2.086162567138672e-07
			]
		},
		{
			"children":[
				6
			],
			"name":"forearm.R",
			"rotation":[
				0.16225025057792664,
				0.014471926726400852,
				0.11231679469347,
				0.9802297949790955
			],
			"scale":[
				0.9999998807907104,
				0.9999998211860657,
				0.9999999403953552
			],
			"translation":[
				5.960464477539063e-08,
				3.85642147064209,
				3.5762786865234375e-07
			]
		},
		{
			"children":[
				7
			],
			"name":"upper_arm.R",
			"rotation":[
				-0.07711087167263031,
				0.0003199104103259742,
				0.20160138607025146,
				0.9764275550842285
			],
			"scale":[
				0.9999998807907104,
				0.9999999403953552,
				0.9999998807907104
			],
			"translation":[
				-3.5762786865234375e-07,
				5.563271522521973,
				-2.980232238769531e-07
			]
		},
		{
			"children":[
				8
			],
			"name":"shoulder.R",
			"rotation":[
				-0.7563924789428711,
				-0.06616318970918655,
				-0.2560519278049469,
				0.5982727408409119
			],
			"translation":[
				0,
				5.304948806762695,
				0
			]
		},
		{
			"children":[
				1,
				5,
				9
			],
			"name":"spine_02",
			"translation":[
				0,
				6.498928070068359,
				0
			]
		},
		{
			"children":[
				10
			],
			"name":"spine_01",
			"translation":[
				0,
				4.797121047973633,
				0
			]
		},
		{
			"name":"tail_03",
			"rotation":[
				0.031449977308511734,
				-3.0726468461597656e-13,
				9.335627160645538e-14,
				0.999505341053009
			],
			"translation":[
				-8.504210790433175e-19,
				5.863720893859863,
				1.1920928955078125e-07
			]
		},
		{
			"children":[
				12
			],
			"name":"tail_02",
			"rotation":[
				-0.0009962492622435093,
				-4.370862427549582e-08,
				-4.354605565026759e-11,
				0.9999995231628418
			],
			"translation":[
				9.448535974888178e-14,
				4.59526252746582,
				-5.960464477539062e-07
			]
		},
		{
			"children":[
				13
			],
			"name":"tail_01",
			"rotation":[
				4.0115304500432103e-07,
				0.0304543599486351,
				-0.9995361566543579,
				9.560039870848414e-09
			],
			"scale":[
				1,
				0.9999998807907104,
				1.0000033378601074
			]
		},
		{
			"name":"back_paw.L",
			"rotation":[
				0.05836024135351181,
				-0.03946738317608833,
				-0.47986161708831787,
				0.8745108842849731
			],
			"scale":[
				1,
				0.9999998807907104,
				0.9999999403953552
			],
			"translation":[
				5.662441253662109e-07,
				3.150722026824951,
				8.940696716308594e-08
			]
		},
		{
			"children":[
				15
			],
			"name":"foot.L",
			"rotation":[
				0.13139204680919647,
				-0.024101797491312027,
				-0.2583029568195343,
				0.9567835927009583
			],
			"scale":[
				1,
				0.9999999403953552,
				1
			],
			"translation":[
				2.682209014892578e-07,
				5.317837715148926,
				-1.1920928955078125e-07
			]
		},
		{
			"children":[
				16
			],
			"name":"shin.L",
			"rotation":[
				-0.37753304839134216,
				0.0403897687792778,
				0.38207656145095825,
				0.8425288796424866
			],
			"scale":[
				1,
				0.9999998211860657,
				0.9999999403953552
			],
			"translation":[
				-8.940696716308594e-07,
				6.0480427742004395,
				1.4901161193847656e-07
			]
		},
		{
			"children":[
				17
			],
			"name":"thigh.L",
			"rotation":[
				-0.26225969195365906,
				-0.4193374216556549,
				0.4114697277545929,
				0.7655512094497681
			],
			"scale":[
				1,
				0.9999999403953552,
				1
			]
		},
		{
			"name":"back_paw.R",
			"rotation":[
				0.05836021155118942,
				0.03946743533015251,
				0.47986161708831787,
				0.8745108842849731
			],
			"scale":[
				1,
				1,
				0.9999999403953552
			],
			"translation":[
				-3.8743019104003906e-07,
				3.150721549987793,
				1.1175870895385742e-08
			]
		},
		{
			"children":[
				19
			],
			"name":"foot.R",
			"rotation":[
				0.13139206171035767,
				0.024101847782731056,
				0.2583030164241791,
				0.9567835330963135
			],
			"translation":[
				9.238719940185547e-07,
				5.317838191986084,
				0
			]
		},
		{
			"children":[
				20
			],
			"name":"shin.R",
			"rotation":[
				-0.37753307819366455,
				-0.04038988798856735,
				-0.38207656145095825,
				0.8425288796424866
			],
			"translation":[
				1.1920928955078125e-07,
				6.048044204711914,
				2.086162567138672e-07
			]
		},
		{
			"children":[
				21
			],
			"name":"thigh.R",
			"rotation":[
				-0.2622593343257904,
				0.41933685541152954,
				-0.41146984696388245,
				0.7655515670776367
			],
			"scale":[
				1.0000001192092896,
				0.9999998807907104,
				1
			]
		},
		{
			"children":[
				11,
				14,
				18,
				22
			],
			"name":"hips",
			"rotation":[
				2.528810796320613e-07,
				-0.7071067690849304,
				-0.7071067690849304,
				2.528810796320613e-07
			],
			"translation":[
				0,
				13.930941581726074,
				-9.547441482543945
			]
		},
		{
			"name":"IK_back_knee_target.L",
			"rotation":[
				0.5561416149139404,
				0.4066256284713745,
				0.6168507933616638,
				0.38060110807418823
			],
			"scale":[
				1,
				1.0000001192092896,
				1.0000011920928955
			],
			"translation":[
				2.9169797897338867,
				8.469072341918945,
				-3.6951985359191895
			]
		},
		{
			"name":"IK_back_knee_target.R",
			"rotation":[
				0.5561416149139404,
				-0.4066256284713745,
				-0.6168507933616638,
				0.38060110807418823
			],
			"scale":[
				1,
				1.0000001192092896,
				1.0000011920928955
			],
			"translation":[
				-2.9169797897338867,
				8.469072341918945,
				-3.6951985359191895
			]
		},
		{
			"name":"IK_back_paw.L",
			"rotation":[
				0.5561416745185852,
				0.40662577748298645,
				0.6168507933616638,
				0.3806009888648987
			],
			"scale":[
				1,
				1,
				1.0000004768371582
			],
			"translation":[
				1.7649580240249634,
				1.459456443786621,
				-7.889875411987305
			]
		},
		{
			"name":"IK_back_paw.R",
			"rotation":[
				0.5561416745185852,
				-0.40662577748298645,
				-0.6168507933616638,
				0.3806009888648987
			],
			"scale":[
				1,
				1,
				1.0000004768371582
			],
			"translation":[
				-1.7649580240249634,
				1.459456443786621,
				-7.889875411987305
			]
		},
		{
			"name":"IK_front_knee_target.L",
			"rotation":[
				-0.2300422191619873,
				0.7051583528518677,
				-0.610375165939331,
				0.2779829204082489
			],
			"scale":[
				1,
				0.9999998807907104,
				0.9999999403953552
			],
			"translation":[
				2.1735401153564453,
				5.630867004394531,
				2.5961551666259766
			]
		},
		{
			"name":"IK_front_knee_target.R",
			"rotation":[
				-0.2300422191619873,
				-0.7051583528518677,
				0.610375165939331,
				0.2779829204082489
			],
			"scale":[
				1,
				0.9999998807907104,
				0.9999999403953552
			],
			"translation":[
				-2.1735401153564453,
				5.630867004394531,
				2.5961551666259766
			]
		},
		{
			"name":"IK_front_paw.L",
			"rotation":[
				0.30015796422958374,
				0.4884185194969177,
				0.7964174747467041,
				0.19254036247730255
			],
			"scale":[
				0.9999998807907104,
				0.9999995827674866,
				0.9999985694885254
			],
			"translation":[
				1.7606759071350098,
				1.430654525756836,
				4.615614891052246
			]
		},
		{
			"name":"IK_front_paw.R",
			"rotation":[
				0.30015796422958374,
				-0.4884185194969177,
				-0.7964174747467041,
				0.19254036247730255
			],
			"scale":[
				0.9999998807907104,
				0.9999995827674866,
				0.9999985694885254
			],
			"translation":[
				-1.7606759071350098,
				1.430654525756836,
				4.615614891052246
			]
		},
		{
			"mesh":0,
			"name":"cat",
			"skin":0
		},
		{
			"children":[
				32,
				23,
				24,
				25,
				26,
				27,
				28,
				29,
				30,
				31
			],
			"name":"Armature"
		},
		{
			"mesh":1,
			"name":"HITBOX",
			"translation":[
				-0.20038631558418274,
				14.513107299804688,
				-1.8378009796142578
			]
		}
	],
	"animations":[
		{
			"channels":[
				{
					"sampler":0,
					"target":{
						"node":23,
						"path":"translation"
					}
				},
				{
					"sampler":1,
					"target":{
						"node":23,
						"path":"rotation"
					}
				},
				{
					"sampler":2,
					"target":{
						"node":23,
						"path":"scale"
					}
				},
				{
					"sampler":3,
					"target":{
						"node":11,
						"path":"translation"
					}
				},
				{
					"sampler":4,
					"target":{
						"node":11,
						"path":"rotation"
					}
				},
				{
					"sampler":5,
					"target":{
						"node":11,
						"path":"scale"
					}
				},
				{
					"sampler":6,
					"target":{
						"node":10,
						"path":"translation"
					}
				},
				{
					"sampler":7,
					"target":{
						"node":10,
						"path":"rotation"
					}
				},
				{
					"sampler":8,
					"target":{
						"node":10,
						"path":"scale"
					}
				},
				{
					"sampler":9,
					"target":{
						"node":1,
						"path":"translation"
					}
				},
				{
					"sampler":10,
					"target":{
						"node":1,
						"path":"rotation"
					}
				},
				{
					"sampler":11,
					"target":{
						"node":1,
						"path":"scale"
					}
				},
				{
					"sampler":12,
					"target":{
						"node":0,
						"path":"translation"
					}
				},
				{
					"sampler":13,
					"target":{
						"node":0,
						"path":"rotation"
					}
				},
				{
					"sampler":14,
					"target":{
						"node":0,
						"path":"scale"
					}
				},
				{
					"sampler":15,
					"target":{
						"node":5,
						"path":"translation"
					}
				},
				{
					"sampler":16,
					"target":{
						"node":5,
						"path":"rotation"
					}
				},
				{
					"sampler":17,
					"target":{
						"node":5,
						"path":"scale"
					}
				},
				{
					"sampler":18,
					"target":{
						"node":4,
						"path":"translation"
					}
				},
				{
					"sampler":19,
					"target":{
						"node":4,
						"path":"rotation"
					}
				},
				{
					"sampler":20,
					"target":{
						"node":4,
						"path":"scale"
					}
				},
				{
					"sampler":21,
					"target":{
						"node":3,
						"path":"translation"
					}
				},
				{
					"sampler":22,
					"target":{
						"node":3,
						"path":"rotation"
					}
				},
				{
					"sampler":23,
					"target":{
						"node":3,
						"path":"scale"
					}
				},
				{
					"sampler":24,
					"target":{
						"node":2,
						"path":"translation"
					}
				},
				{
					"sampler":25,
					"target":{
						"node":2,
						"path":"rotation"
					}
				},
				{
					"sampler":26,
					"target":{
						"node":2,
						"path":"scale"
					}
				},
				{
					"sampler":27,
					"target":{
						"node":9,
						"path":"translation"
					}
				},
				{
					"sampler":28,
					"target":{
						"node":9,
						"path":"rotation"
					}
				},
				{
					"sampler":29,
					"target":{
						"node":9,
						"path":"scale"
					}
				},
				{
					"sampler":30,
					"target":{
						"node":8,
						"path":"translation"
					}
				},
				{
					"sampler":31,
					"target":{
						"node":8,
						"path":"rotation"
					}
				},
				{
					"sampler":32,
					"target":{
						"node":8,
						"path":"scale"
					}
				},
				{
					"sampler":33,
					"target":{
						"node":7,
						"path":"translation"
					}
				},
				{
					"sampler":34,
					"target":{
						"node":7,
						"path":"rotation"
					}
				},
				{
					"sampler":35,
					"target":{
						"node":7,
						"path":"scale"
					}
				},
				{
					"sampler":36,
					"target":{
						"node":6,
						"path":"translation"
					}
				},
				{
					"sampler":37,
					"target":{
						"node":6,
						"path":"rotation"
					}
				},
				{
					"sampler":38,
					"target":{
						"node":6,
						"path":"scale"
					}
				},
				{
					"sampler":39,
					"target":{
						"node":14,
						"path":"translation"
					}
				},
				{
					"sampler":40,
					"target":{
						"node":14,
						"path":"rotation"
					}
				},
				{
					"sampler":41,
					"target":{
						"node":14,
						"path":"scale"
					}
				},
				{
					"sampler":42,
					"target":{
						"node":13,
						"path":"translation"
					}
				},
				{
					"sampler":43,
					"target":{
						"node":13,
						"path":"rotation"
					}
				},
				{
					"sampler":44,
					"target":{
						"node":13,
						"path":"scale"
					}
				},
				{
					"sampler":45,
					"target":{
						"node":12,
						"path":"translation"
					}
				},
				{
					"sampler":46,
					"target":{
						"node":12,
						"path":"rotation"
					}
				},
				{
					"sampler":47,
					"target":{
						"node":12,
						"path":"scale"
					}
				},
				{
					"sampler":48,
					"target":{
						"node":18,
						"path":"translation"
					}
				},
				{
					"sampler":49,
					"target":{
						"node":18,
						"path":"rotation"
					}
				},
				{
					"sampler":50,
					"target":{
						"node":18,
						"path":"scale"
					}
				},
				{
					"sampler":51,
					"target":{
						"node":17,
						"path":"translation"
					}
				},
				{
					"sampler":52,
					"target":{
						"node":17,
						"path":"rotation"
					}
				},
				{
					"sampler":53,
					"target":{
						"node":17,
						"path":"scale"
					}
				},
				{
					"sampler":54,
					"target":{
						"node":16,
						"path":"translation"
					}
				},
				{
					"sampler":55,
					"target":{
						"node":16,
						"path":"rotation"
					}
				},
				{
					"sampler":56,
					"target":{
						"node":16,
						"path":"scale"
					}
				},
				{
					"sampler":57,
					"target":{
						"node":15,
						"path":"translation"
					}
				},
				{
					"sampler":58,
					"target":{
						"node":15,
						"path":"rotation"
					}
				},
				{
					"sampler":59,
					"target":{
						"node":15,
						"path":"scale"
					}
				},
				{
					"sampler":60,
					"target":{
						"node":22,
						"path":"translation"
					}
				},
				{
					"sampler":61,
					"target":{
						"node":22,
						"path":"rotation"
					}
				},
				{
					"sampler":62,
					"target":{
						"node":22,
						"path":"scale"
					}
				},
				{
					"sampler":63,
					"target":{
						"node":21,
						"path":"translation"
					}
				},
				{
					"sampler":64,
					"target":{
						"node":21,
						"path":"rotation"
					}
				},
				{
					"sampler":65,
					"target":{
						"node":21,
						"path":"scale"
					}
				},
				{
					"sampler":66,
					"target":{
						"node":20,
						"path":"translation"
					}
				},
				{
					"sampler":67,
					"target":{
						"node":20,
						"path":"rotation"
					}
				},
				{
					"sampler":68,
					"target":{
						"node":20,
						"path":"scale"
					}
				},
				{
					"sampler":69,
					"target":{
						"node":19,
						"path":"translation"
					}
				},
				{
					"sampler":70,
					"target":{
						"node":19,
						"path":"rotation"
					}
				},
				{
					"sampler":71,
					"target":{
						"node":19,
						"path":"scale"
					}
				},
				{
					"sampler":72,
					"target":{
						"node":24,
						"path":"translation"
					}
				},
				{
					"sampler":73,
					"target":{
						"node":24,
						"path":"rotation"
					}
				},
				{
					"sampler":74,
					"target":{
						"node":24,
						"path":"scale"
					}
				},
				{
					"sampler":75,
					"target":{
						"node":25,
						"path":"translation"
					}
				},
				{
					"sampler":76,
					"target":{
						"node":25,
						"path":"rotation"
					}
				},
				{
					"sampler":77,
					"target":{
						"node":25,
						"path":"scale"
					}
				},
				{
					"sampler":78,
					"target":{
						"node":26,
						"path":"translation"
					}
				},
				{
					"sampler":79,
					"target":{
						"node":26,
						"path":"rotation"
					}
				},
				{
					"sampler":80,
					"target":{
						"node":26,
						"path":"scale"
					}
				},
				{
					"sampler":81,
					"target":{
						"node":27,
						"path":"translation"
					}
				},
				{
					"sampler":82,
					"target":{
						"node":27,
						"path":"rotation"
					}
				},
				{
					"sampler":83,
					"target":{
						"node":27,
						"path":"scale"
					}
				},
				{
					"sampler":84,
					"target":{
						"node":28,
						"path":"translation"
					}
				},
				{
					"sampler":85,
					"target":{
						"node":28,
						"path":"rotation"
					}
				},
				{
					"sampler":86,
					"target":{
						"node":28,
						"path":"scale"
					}
				},
				{
					"sampler":87,
					"target":{
						"node":29,
						"path":"translation"
					}
				},
				{
					"sampler":88,
					"target":{
						"node":29,
						"path":"rotation"
					}
				},
				{
					"sampler":89,
					"target":{
						"node":29,
						"path":"scale"
					}
				},
				{
					"sampler":90,
					"target":{
						"node":30,
						"path":"translation"
					}
				},
				{
					"sampler":91,
					"target":{
						"node":30,
						"path":"rotation"
					}
				},
				{
					"sampler":92,
					"target":{
						"node":30,
						"path":"scale"
					}
				},
				{
					"sampler":93,
					"target":{
						"node":31,
						"path":"translation"
					}
				},
				{
					"sampler":94,
					"target":{
						"node":31,
						"path":"rotation"
					}
				},
				{
					"sampler":95,
					"target":{
						"node":31,
						"path":"scale"
					}
				}
			],
			"name":"jump",
			"samplers":[
				{
					"input":11,
					"interpolation":"LINEAR",
					"output":12
				},
				{
					"input":13,
					"interpolation":"STEP",
					"output":14
				},
				{
					"input":13,
					"interpolation":"STEP",
					"output":15
				},
				{
					"input":13,
					"interpolation":"STEP",
					"output":16
				},
				{
					"input":13,
					"interpolation":"STEP",
					"output":17
				},
				{
					"input":13,
					"interpolation":"STEP",
					"output":15
				},
				{
					"input":13,
					"interpolation":"STEP",
					"output":18
				},
				{
					"input":13,
					"interpolation":"STEP",
					"output":17
				},
				{
					"input":13,
					"interpolation":"STEP",
					"output":15
				},
				{
					"input":13,
					"interpolation":"STEP",
					"output":19
				},
				{
					"input":13,
					"interpolation":"STEP",
					"output":17
				},
				{
					"input":13,
					"interpolation":"STEP",
					"output":15
				},
				{
					"input":13,
					"interpolation":"STEP",
					"output":20
				},
				{
					"input":13,
					"interpolation":"STEP",
					"output":21
				},
				{
					"input":13,
					"interpolation":"STEP",
					"output":15
				},
				{
					"input":13,
					"interpolation":"STEP",
					"output":22
				},
				{
					"input":11,
					"interpolation":"LINEAR",
					"output":23
				},
				{
					"input":13,
					"interpolation":"STEP",
					"output":24
				},
				{
					"input":13,
					"interpolation":"STEP",
					"output":25
				},
				{
					"input":11,
					"interpolation":"LINEAR",
					"output":26
				},
				{
					"input":13,
					"interpolation":"STEP",
					"output":27
				},
				{
					"input":13,
					"interpolation":"STEP",
					"output":28
				},
				{
					"input":11,
					"interpolation":"LINEAR",
					"output":29
				},
				{
					"input":13,
					"interpolation":"STEP",
					"output":30
				},
				{
					"input":13,
					"interpolation":"STEP",
					"output":31
				},
				{
					"input":11,
					"interpolation":"LINEAR",
					"output":32
				},
				{
					"input":13,
					"interpolation":"STEP",
					"output":33
				},
				{
					"input":13,
					"interpolation":"STEP",
					"output":34
				},
				{
					"input":11,
					"interpolation":"LINEAR",
					"output":35
				},
				{
					"input":13,
					"interpolation":"STEP",
					"output":15
				},
				{
					"input":13,
					"interpolation":"STEP",
					"output":36
				},
				{
					"input":11,
					"interpolation":"LINEAR",
					"output":37
				},
				{
					"input":13,
					"interpolation":"STEP",
					"output":38
				},
				{
					"input":13,
					"interpolation":"STEP",
					"output":39
				},
				{
					"input":11,
					"interpolation":"LINEAR",
					"output":40
				},
				{
					"input":13,
					"interpolation":"STEP",
					"output":41
				},
				{
					"input":13,
					"interpolation":"STEP",
					"output":42
				},
				{
					"input":11,
					"interpolation":"LINEAR",
					"output":43
				},
				{
					"input":13,
					"interpolation":"STEP",
					"output":15
				},
				{
					"input":13,
					"interpolation":"STEP",
					"output":44
				},
				{
					"input":13,
					"interpolation":"STEP",
					"output":45
				},
				{
					"input":13,
					"interpolation":"STEP",
					"output":46
				},
				{
					"input":13,
					"interpolation":"STEP",
					"output":47
				},
				{
					"input":13,
					"interpolation":"STEP",
					"output":48
				},
				{
					"input":13,
					"interpolation":"STEP",
					"output":49
				},
				{
					"input":13,
					"interpolation":"STEP",
					"output":50
				},
				{
					"input":13,
					"interpolation":"STEP",
					"output":51
				},
				{
					"input":13,
					"interpolation":"STEP",
					"output":15
				},
				{
					"input":13,
					"interpolation":"STEP",
					"output":52
				},
				{
					"input":11,
					"interpolation":"LINEAR",
					"output":53
				},
				{
					"input":13,
					"interpolation":"STEP",
					"output":54
				},
				{
					"input":13,
					"interpolation":"STEP",
					"output":55
				},
				{
					"input":11,
					"interpolation":"LINEAR",
					"output":56
				},
				{
					"input":13,
					"interpolation":"STEP",
					"output":57
				},
				{
					"input":13,
					"interpolation":"STEP",
					"output":58
				},
				{
					"input":11,
					"interpolation":"LINEAR",
					"output":59
				},
				{
					"input":13,
					"interpolation":"STEP",
					"output":60
				},
				{
					"input":13,
					"interpolation":"STEP",
					"output":61
				},
				{
					"input":13,
					"interpolation":"STEP",
					"output":62
				},
				{
					"input":13,
					"interpolation":"STEP",
					"output":63
				},
				{
					"input":13,
					"interpolation":"STEP",
					"output":64
				},
				{
					"input":11,
					"interpolation":"LINEAR",
					"output":65
				},
				{
					"input":13,
					"interpolation":"STEP",
					"output":66
				},
				{
					"input":13,
					"interpolation":"STEP",
					"output":67
				},
				{
					"input":11,
					"interpolation":"LINEAR",
					"output":68
				},
				{
					"input":13,
					"interpolation":"STEP",
					"output":69
				},
				{
					"input":13,
					"interpolation":"STEP",
					"output":70
				},
				{
					"input":11,
					"interpolation":"LINEAR",
					"output":71
				},
				{
					"input":13,
					"interpolation":"STEP",
					"output":72
				},
				{
					"input":13,
					"interpolation":"STEP",
					"output":73
				},
				{
					"input":13,
					"interpolation":"STEP",
					"output":74
				},
				{
					"input":13,
					"interpolation":"STEP",
					"output":75
				},
				{
					"input":13,
					"interpolation":"STEP",
					"output":76
				},
				{
					"input":13,
					"interpolation":"STEP",
					"output":77
				},
				{
					"input":13,
					"interpolation":"STEP",
					"output":78
				},
				{
					"input":13,
					"interpolation":"STEP",
					"output":79
				},
				{
					"input":13,
					"interpolation":"STEP",
					"output":80
				},
				{
					"input":13,
					"interpolation":"STEP",
					"output":78
				},
				{
					"input":11,
					"interpolation":"LINEAR",
					"output":81
				},
				{
					"input":13,
					"interpolation":"STEP",
					"output":82
				},
				{
					"input":13,
					"interpolation":"STEP",
					"output":83
				},
				{
					"input":11,
					"interpolation":"LINEAR",
					"output":84
				},
				{
					"input":13,
					"interpolation":"STEP",
					"output":85
				},
				{
					"input":13,
					"interpolation":"STEP",
					"output":83
				},
				{
					"input":11,
					"interpolation":"LINEAR",
					"output":86
				},
				{
					"input":13,
					"interpolation":"STEP",
					"output":87
				},
				{
					"input":13,
					"interpolation":"STEP",
					"output":88
				},
				{
					"input":11,
					"interpolation":"LINEAR",
					"output":89
				},
				{
					"input":13,
					"interpolation":"STEP",
					"output":90
				},
				{
					"input":13,
					"interpolation":"STEP",
					"output":88
				},
				{
					"input":11,
					"interpolation":"LINEAR",
					"output":91
				},
				{
					"input":13,
					"interpolation":"STEP",
					"output":92
				},
				{
					"input":13,
					"interpolation":"STEP",
					"output":93
				},
				{
					"input":11,
					"interpolation":"LINEAR",
					"output":94
				},
				{
					"input":13,
					"interpolation":"STEP",
					"output":95
				},
				{
					"input":13,
					"interpolation":"STEP",
					"output":93
				}
			]
		},
		{
			"channels":[
				{
					"sampler":0,
					"target":{
						"node":23,
						"path":"translation"
					}
				},
				{
					"sampler":1,
					"target":{
						"node":23,
						"path":"rotation"
					}
				},
				{
					"sampler":2,
					"target":{
						"node":23,
						"path":"scale"
					}
				},
				{
					"sampler":3,
					"target":{
						"node":11,
						"path":"translation"
					}
				},
				{
					"sampler":4,
					"target":{
						"node":11,
						"path":"rotation"
					}
				},
				{
					"sampler":5,
					"target":{
						"node":11,
						"path":"scale"
					}
				},
				{
					"sampler":6,
					"target":{
						"node":10,
						"path":"translation"
					}
				},
				{
					"sampler":7,
					"target":{
						"node":10,
						"path":"rotation"
					}
				},
				{
					"sampler":8,
					"target":{
						"node":10,
						"path":"scale"
					}
				},
				{
					"sampler":9,
					"target":{
						"node":1,
						"path":"translation"
					}
				},
				{
					"sampler":10,
					"target":{
						"node":1,
						"path":"rotation"
					}
				},
				{
					"sampler":11,
					"target":{
						"node":1,
						"path":"scale"
					}
				},
				{
					"sampler":12,
					"target":{
						"node":0,
						"path":"translation"
					}
				},
				{
					"sampler":13,
					"target":{
						"node":0,
						"path":"rotation"
					}
				},
				{
					"sampler":14,
					"target":{
						"node":0,
						"path":"scale"
					}
				},
				{
					"sampler":15,
					"target":{
						"node":5,
						"path":"translation"
					}
				},
				{
					"sampler":16,
					"target":{
						"node":5,
						"path":"rotation"
					}
				},
				{
					"sampler":17,
					"target":{
						"node":5,
						"path":"scale"
					}
				},
				{
					"sampler":18,
					"target":{
						"node":4,
						"path":"translation"
					}
				},
				{
					"sampler":19,
					"target":{
						"node":4,
						"path":"rotation"
					}
				},
				{
					"sampler":20,
					"target":{
						"node":4,
						"path":"scale"
					}
				},
				{
					"sampler":21,
					"target":{
						"node":3,
						"path":"translation"
					}
				},
				{
					"sampler":22,
					"target":{
						"node":3,
						"path":"rotation"
					}
				},
				{
					"sampler":23,
					"target":{
						"node":3,
						"path":"scale"
					}
				},
				{
					"sampler":24,
					"target":{
						"node":2,
						"path":"translation"
					}
				},
				{
					"sampler":25,
					"target":{
						"node":2,
						"path":"rotation"
					}
				},
				{
					"sampler":26,
					"target":{
						"node":2,
						"path":"scale"
					}
				},
				{
					"sampler":27,
					"target":{
						"node":9,
						"path":"translation"
					}
				},
				{
					"sampler":28,
					"target":{
						"node":9,
						"path":"rotation"
					}
				},
				{
					"sampler":29,
					"target":{
						"node":9,
						"path":"scale"
					}
				},
				{
					"sampler":30,
					"target":{
						"node":8,
						"path":"translation"
					}
				},
				{
					"sampler":31,
					"target":{
						"node":8,
						"path":"rotation"
					}
				},
				{
					"sampler":32,
					"target":{
						"node":8,
						"path":"scale"
					}
				},
				{
					"sampler":33,
					"target":{
						"node":7,
						"path":"translation"
					}
				},
				{
					"sampler":34,
					"target":{
						"node":7,
						"path":"rotation"
					}
				},
				{
					"sampler":35,
					"target":{
						"node":7,
						"path":"scale"
					}
				},
				{
					"sampler":36,
					"target":{
						"node":6,
						"path":"translation"
					}
				},
				{
					"sampler":37,
					"target":{
						"node":6,
						"path":"rotation"
					}
				},
				{
					"sampler":38,
					"target":{
						"node":6,
						"path":"scale"
					}
				},
				{
					"sampler":39,
					"target":{
						"node":14,
						"path":"translation"
					}
				},
				{
					"sampler":40,
					"target":{
						"node":14,
						"path":"rotation"
					}
				},
				{
					"sampler":41,
					"target":{
						"node":14,
						"path":"scale"
					}
				},
				{
					"sampler":42,
					"target":{
						"node":13,
						"path":"translation"
					}
				},
				{
					"sampler":43,
					"target":{
						"node":13,
						"path":"rotation"
					}
				},
				{
					"sampler":44,
					"target":{
						"node":13,
						"path":"scale"
					}
				},
				{
					"sampler":45,
					"target":{
						"node":12,
						"path":"translation"
					}
				},
				{
					"sampler":46,
					"target":{
						"node":12,
						"path":"rotation"
					}
				},
				{
					"sampler":47,
					"target":{
						"node":12,
						"path":"scale"
					}
				},
				{
					"sampler":48,
					"target":{
						"node":18,
						"path":"translation"
					}
				},
				{
					"sampler":49,
					"target":{
						"node":18,
						"path":"rotation"
					}
				},
				{
					"sampler":50,
					"target":{
						"node":18,
						"path":"scale"
					}
				},
				{
					"sampler":51,
					"target":{
						"node":17,
						"path":"translation"
					}
				},
				{
					"sampler":52,
					"target":{
						"node":17,
						"path":"rotation"
					}
				},
				{
					"sampler":53,
					"target":{
						"node":17,
						"path":"scale"
					}
				},
				{
					"sampler":54,
					"target":{
						"node":16,
						"path":"translation"
					}
				},
				{
					"sampler":55,
					"target":{
						"node":16,
						"path":"rotation"
					}
				},
				{
					"sampler":56,
					"target":{
						"node":16,
						"path":"scale"
					}
				},
				{
					"sampler":57,
					"target":{
						"node":15,
						"path":"translation"
					}
				},
				{
					"sampler":58,
					"target":{
						"node":15,
						"path":"rotation"
					}
				},
				{
					"sampler":59,
					"target":{
						"node":15,
						"path":"scale"
					}
				},
				{
					"sampler":60,
					"target":{
						"node":22,
						"path":"translation"
					}
				},
				{
					"sampler":61,
					"target":{
						"node":22,
						"path":"rotation"
					}
				},
				{
					"sampler":62,
					"target":{
						"node":22,
						"path":"scale"
					}
				},
				{
					"sampler":63,
					"target":{
						"node":21,
						"path":"translation"
					}
				},
				{
					"sampler":64,
					"target":{
						"node":21,
						"path":"rotation"
					}
				},
				{
					"sampler":65,
					"target":{
						"node":21,
						"path":"scale"
					}
				},
				{
					"sampler":66,
					"target":{
						"node":20,
						"path":"translation"
					}
				},
				{
					"sampler":67,
					"target":{
						"node":20,
						"path":"rotation"
					}
				},
				{
					"sampler":68,
					"target":{
						"node":20,
						"path":"scale"
					}
				},
				{
					"sampler":69,
					"target":{
						"node":19,
						"path":"translation"
					}
				},
				{
					"sampler":70,
					"target":{
						"node":19,
						"path":"rotation"
					}
				},
				{
					"sampler":71,
					"target":{
						"node":19,
						"path":"scale"
					}
				},
				{
					"sampler":72,
					"target":{
						"node":24,
						"path":"translation"
					}
				},
				{
					"sampler":73,
					"target":{
						"node":24,
						"path":"rotation"
					}
				},
				{
					"sampler":74,
					"target":{
						"node":24,
						"path":"scale"
					}
				},
				{
					"sampler":75,
					"target":{
						"node":25,
						"path":"translation"
					}
				},
				{
					"sampler":76,
					"target":{
						"node":25,
						"path":"rotation"
					}
				},
				{
					"sampler":77,
					"target":{
						"node":25,
						"path":"scale"
					}
				},
				{
					"sampler":78,
					"target":{
						"node":26,
						"path":"translation"
					}
				},
				{
					"sampler":79,
					"target":{
						"node":26,
						"path":"rotation"
					}
				},
				{
					"sampler":80,
					"target":{
						"node":26,
						"path":"scale"
					}
				},
				{
					"sampler":81,
					"target":{
						"node":27,
						"path":"translation"
					}
				},
				{
					"sampler":82,
					"target":{
						"node":27,
						"path":"rotation"
					}
				},
				{
					"sampler":83,
					"target":{
						"node":27,
						"path":"scale"
					}
				},
				{
					"sampler":84,
					"target":{
						"node":28,
						"path":"translation"
					}
				},
				{
					"sampler":85,
					"target":{
						"node":28,
						"path":"rotation"
					}
				},
				{
					"sampler":86,
					"target":{
						"node":28,
						"path":"scale"
					}
				},
				{
					"sampler":87,
					"target":{
						"node":29,
						"path":"translation"
					}
				},
				{
					"sampler":88,
					"target":{
						"node":29,
						"path":"rotation"
					}
				},
				{
					"sampler":89,
					"target":{
						"node":29,
						"path":"scale"
					}
				},
				{
					"sampler":90,
					"target":{
						"node":30,
						"path":"translation"
					}
				},
				{
					"sampler":91,
					"target":{
						"node":30,
						"path":"rotation"
					}
				},
				{
					"sampler":92,
					"target":{
						"node":30,
						"path":"scale"
					}
				},
				{
					"sampler":93,
					"target":{
						"node":31,
						"path":"translation"
					}
				},
				{
					"sampler":94,
					"target":{
						"node":31,
						"path":"rotation"
					}
				},
				{
					"sampler":95,
					"target":{
						"node":31,
						"path":"scale"
					}
				}
			],
			"name":"run-cycle",
			"samplers":[
				{
					"input":96,
					"interpolation":"LINEAR",
					"output":97
				},
				{
					"input":98,
					"interpolation":"STEP",
					"output":14
				},
				{
					"input":98,
					"interpolation":"STEP",
					"output":15
				},
				{
					"input":98,
					"interpolation":"STEP",
					"output":99
				},
				{
					"input":98,
					"interpolation":"STEP",
					"output":17
				},
				{
					"input":98,
					"interpolation":"STEP",
					"output":15
				},
				{
					"input":98,
					"interpolation":"STEP",
					"output":100
				},
				{
					"input":98,
					"interpolation":"STEP",
					"output":101
				},
				{
					"input":98,
					"interpolation":"STEP",
					"output":49
				},
				{
					"input":98,
					"interpolation":"STEP",
					"output":102
				},
				{
					"input":98,
					"interpolation":"STEP",
					"output":103
				},
				{
					"input":98,
					"interpolation":"STEP",
					"output":104
				},
				{
					"input":98,
					"interpolation":"STEP",
					"output":105
				},
				{
					"input":98,
					"interpolation":"STEP",
					"output":21
				},
				{
					"input":98,
					"interpolation":"STEP",
					"output":104
				},
				{
					"input":98,
					"interpolation":"STEP",
					"output":106
				},
				{
					"input":96,
					"interpolation":"LINEAR",
					"output":107
				},
				{
					"input":98,
					"interpolation":"STEP",
					"output":108
				},
				{
					"input":98,
					"interpolation":"STEP",
					"output":109
				},
				{
					"input":96,
					"interpolation":"LINEAR",
					"output":110
				},
				{
					"input":98,
					"interpolation":"STEP",
					"output":111
				},
				{
					"input":98,
					"interpolation":"STEP",
					"output":112
				},
				{
					"input":96,
					"interpolation":"LINEAR",
					"output":113
				},
				{
					"input":98,
					"interpolation":"STEP",
					"output":88
				},
				{
					"input":98,
					"interpolation":"STEP",
					"output":114
				},
				{
					"input":96,
					"interpolation":"LINEAR",
					"output":115
				},
				{
					"input":98,
					"interpolation":"STEP",
					"output":116
				},
				{
					"input":98,
					"interpolation":"STEP",
					"output":117
				},
				{
					"input":96,
					"interpolation":"LINEAR",
					"output":118
				},
				{
					"input":98,
					"interpolation":"STEP",
					"output":119
				},
				{
					"input":98,
					"interpolation":"STEP",
					"output":120
				},
				{
					"input":96,
					"interpolation":"LINEAR",
					"output":121
				},
				{
					"input":98,
					"interpolation":"STEP",
					"output":122
				},
				{
					"input":98,
					"interpolation":"STEP",
					"output":123
				},
				{
					"input":96,
					"interpolation":"LINEAR",
					"output":124
				},
				{
					"input":98,
					"interpolation":"STEP",
					"output":125
				},
				{
					"input":98,
					"interpolation":"STEP",
					"output":126
				},
				{
					"input":96,
					"interpolation":"LINEAR",
					"output":127
				},
				{
					"input":98,
					"interpolation":"STEP",
					"output":128
				},
				{
					"input":98,
					"interpolation":"STEP",
					"output":129
				},
				{
					"input":98,
					"interpolation":"STEP",
					"output":45
				},
				{
					"input":98,
					"interpolation":"STEP",
					"output":46
				},
				{
					"input":98,
					"interpolation":"STEP",
					"output":130
				},
				{
					"input":98,
					"interpolation":"STEP",
					"output":48
				},
				{
					"input":98,
					"interpolation":"STEP",
					"output":49
				},
				{
					"input":98,
					"interpolation":"STEP",
					"output":131
				},
				{
					"input":98,
					"interpolation":"STEP",
					"output":51
				},
				{
					"input":98,
					"interpolation":"STEP",
					"output":15
				},
				{
					"input":98,
					"interpolation":"STEP",
					"output":132
				},
				{
					"input":96,
					"interpolation":"LINEAR",
					"output":133
				},
				{
					"input":98,
					"interpolation":"STEP",
					"output":134
				},
				{
					"input":98,
					"interpolation":"STEP",
					"output":135
				},
				{
					"input":96,
					"interpolation":"LINEAR",
					"output":136
				},
				{
					"input":98,
					"interpolation":"STEP",
					"output":137
				},
				{
					"input":98,
					"interpolation":"STEP",
					"output":138
				},
				{
					"input":96,
					"interpolation":"LINEAR",
					"output":139
				},
				{
					"input":98,
					"interpolation":"STEP",
					"output":140
				},
				{
					"input":98,
					"interpolation":"STEP",
					"output":141
				},
				{
					"input":96,
					"interpolation":"LINEAR",
					"output":142
				},
				{
					"input":98,
					"interpolation":"STEP",
					"output":143
				},
				{
					"input":98,
					"interpolation":"STEP",
					"output":144
				},
				{
					"input":96,
					"interpolation":"LINEAR",
					"output":145
				},
				{
					"input":98,
					"interpolation":"STEP",
					"output":146
				},
				{
					"input":98,
					"interpolation":"STEP",
					"output":147
				},
				{
					"input":96,
					"interpolation":"LINEAR",
					"output":148
				},
				{
					"input":98,
					"interpolation":"STEP",
					"output":149
				},
				{
					"input":98,
					"interpolation":"STEP",
					"output":150
				},
				{
					"input":96,
					"interpolation":"LINEAR",
					"output":151
				},
				{
					"input":98,
					"interpolation":"STEP",
					"output":152
				},
				{
					"input":98,
					"interpolation":"STEP",
					"output":153
				},
				{
					"input":96,
					"interpolation":"LINEAR",
					"output":154
				},
				{
					"input":98,
					"interpolation":"STEP",
					"output":49
				},
				{
					"input":98,
					"interpolation":"STEP",
					"output":76
				},
				{
					"input":98,
					"interpolation":"STEP",
					"output":77
				},
				{
					"input":98,
					"interpolation":"STEP",
					"output":78
				},
				{
					"input":98,
					"interpolation":"STEP",
					"output":79
				},
				{
					"input":98,
					"interpolation":"STEP",
					"output":80
				},
				{
					"input":98,
					"interpolation":"STEP",
					"output":78
				},
				{
					"input":96,
					"interpolation":"LINEAR",
					"output":155
				},
				{
					"input":98,
					"interpolation":"STEP",
					"output":82
				},
				{
					"input":98,
					"interpolation":"STEP",
					"output":83
				},
				{
					"input":96,
					"interpolation":"LINEAR",
					"output":156
				},
				{
					"input":98,
					"interpolation":"STEP",
					"output":85
				},
				{
					"input":98,
					"interpolation":"STEP",
					"output":83
				},
				{
					"input":98,
					"interpolation":"STEP",
					"output":157
				},
				{
					"input":98,
					"interpolation":"STEP",
					"output":87
				},
				{
					"input":98,
					"interpolation":"STEP",
					"output":88
				},
				{
					"input":98,
					"interpolation":"STEP",
					"output":158
				},
				{
					"input":98,
					"interpolation":"STEP",
					"output":90
				},
				{
					"input":98,
					"interpolation":"STEP",
					"output":88
				},
				{
					"input":96,
					"interpolation":"LINEAR",
					"output":159
				},
				{
					"input":98,
					"interpolation":"STEP",
					"output":92
				},
				{
					"input":98,
					"interpolation":"STEP",
					"output":93
				},
				{
					"input":96,
					"interpolation":"LINEAR",
					"output":160
				},
				{
					"input":98,
					"interpolation":"STEP",
					"output":95
				},
				{
					"input":98,
					"interpolation":"STEP",
					"output":93
				}
			]
		}
	],
	"materials":[
		{
			"doubleSided":true,
			"name":"Material.003",
			"pbrMetallicRoughness":{
				"baseColorTexture":{
					"index":0
				},
				"metallicFactor":0,
				"roughnessFactor":0.5
			}
		}
	],
	"meshes":[
		{
			"name":"cat.002",
			"primitives":[
				{
					"attributes":{
						"POSITION":0,
						"NORMAL":1,
						"TEXCOORD_0":2,
						"JOINTS_0":3,
						"WEIGHTS_0":4
					},
					"indices":5,
					"material":0
				}
			]
		},
		{
			"name":"Cube",
			"primitives":[
				{
					"attributes":{
						"POSITION":7,
						"NORMAL":8,
						"TEXCOORD_0":9
					},
					"indices":10
				}
			]
		}
	],
	"textures":[
		{
			"sampler":0,
			"source":0
		}
	],
	"images":[
		{
			"mimeType":"image/png",
			"name":"BlackCatText",
			"uri":"BlackCatText.png"
		}
	],
	"skins":[
		{
			"inverseBindMatrices":6,
			"joints":[
				23,
				11,
				10,
				1,
				0,
				5,
				4,
				3,
				2,
				9,
				8,
				7,
				6,
				14,
				13,
				12,
				18,
				17,
				16,
				15,
				22,
				21,
				20,
				19,
				24,
				25,
				26,
				27,
				28,
				29,
				30,
				31
			],
			"name":"Armature"
		}
	],
	"accessors":[
		{
			"bufferView":0,
			"componentType":5126,
			"count":1280,
			"max":[
				3.966444253921509,
				18.583797454833984,
				15.265789985656738
			],
			"min":[
				-3.9665615558624268,
				0.39261898398399353,
				-26.583948135375977
			],
			"type":"VEC3"
		},
		{
			"bufferView":1,
			"componentType":5126,
			"count":1280,
			"type":"VEC3"
		},
		{
			"bufferView":2,
			"componentType":5126,
			"count":1280,
			"type":"VEC2"
		},
		{
			"bufferView":3,
			"componentType":5121,
			"count":1280,
			"type":"VEC4"
		},
		{
			"bufferView":4,
			"componentType":5126,
			"count":1280,
			"type":"VEC4"
		},
		{
			"bufferView":5,
			"componentType":5123,
			"count":6246,
			"type":"SCALAR"
		},
		{
			"bufferView":6,
			"componentType":5126,
			"count":32,
			"type":"MAT4"
		},
		{
			"bufferView":7,
			"componentType":5126,
			"count":75,
			"max":[
				2.4700469970703125,
				1,
				16.81057357788086
			],
			"min":[
				-1.9888978004455566,
				-13.97396469116211,
				-8.390375137329102
			],
			"type":"VEC3"
		},
		{
			"bufferView":8,
			"componentType":5126,
			"count":75,
			"type":"VEC3"
		},
		{
			"bufferView":9,
			"componentType":5126,
			"count":75,
			"type":"VEC2"
		},
		{
			"bufferView":10,
			"componentType":5123,
			"count":156,
			"type":"SCALAR"
		},
		{
			"bufferView":11,
			"componentType":5126,
			"count":49,
			"max":[
				1.6333333333333333
			],
			"min":[
				0.03333333333333333
			],
			"type":"SCALAR"
		},
		{
			"bufferView":12,
			"componentType":5126,
			"count":49,
			"type":"VEC3"
		},
		{
			"bufferView":13,
			"componentType":5126,
			"count":2,
			"max":[
				1.6333333333333333
			],
			"min":[
				0.03333333333333333
			],
			"type":"SCALAR"
		},
		{
			"bufferView":14,
			"componentType":5126,
			"count":2,
			"type":"VEC4"
		},
		{
			"bufferView":15,
			"componentType":5126,
			"count":2,
			"type":"VEC3"
		},
		{
			"bufferView":16,
			"componentType":5126,
			"count":2,
			"type":"VEC3"
		},
		{
			"bufferView":17,
			"componentType":5126,
			"count":2,
			"type":"VEC4"
		},
		{
			"bufferView":18,
			"componentType":5126,
			"count":2,
			"type":"VEC3"
		},
		{
			"bufferView":19,
			"componentType":5126,
			"count":2,
			"type":"VEC3"
		},
		{
			"bufferView":20,
			"componentType":5126,
			"count":2,
			"type":"VEC3"
		},
		{
			"bufferView":21,
			"componentType":5126,
			"count":2,
			"type":"VEC4"
		},
		{
			"bufferView":22,
			"componentType":5126,
			"count":2,
			"type":"VEC3"
		},
		{
			"bufferView":23,
			"componentType":5126,
			"count":49,
			"type":"VEC4"
		},
		{
			"bufferView":24,
			"componentType":5126,
			"count":2,
			"type":"VEC3"
		},
		{
			"bufferView":25,
			"componentType":5126,
			"count":2,
			"type":"VEC3"
		},
		{
			"bufferView":26,
			"componentType":5126,
			"count":49,
			"type":"VEC4"
		},
		{
			"bufferView":27,
			"componentType":5126,
			"count":2,
			"type":"VEC3"
		},
		{
			"bufferView":28,
			"componentType":5126,
			"count":2,
			"type":"VEC3"
		},
		{
			"bufferView":29,
			"componentType":5126,
			"count":49,
			"type":"VEC4"
		},
		{
			"bufferView":30,
			"componentType":5126,
			"count":2,
			"type":"VEC3"
		},
		{
			"bufferView":31,
			"componentType":5126,
			"count":2,
			"type":"VEC3"
		},
		{
			"bufferView":32,
			"componentType":5126,
			"count":49,
			"type":"VEC4"
		},
		{
			"bufferView":33,
			"componentType":5126,
			"count":2,
			"type":"VEC3"
		},
		{
			"bufferView":34,
			"componentType":5126,
			"count":2,
			"type":"VEC3"
		},
		{
			"bufferView":35,
			"componentType":5126,
			"count":49,
			"type":"VEC4"
		},
		{
			"bufferView":36,
			"componentType":5126,
			"count":2,
			"type":"VEC3"
		},
		{
			"bufferView":37,
			"componentType":5126,
			"count":49,
			"type":"VEC4"
		},
		{
			"bufferView":38,
			"componentType":5126,
			"count":2,
			"type":"VEC3"
		},
		{
			"bufferView":39,
			"componentType":5126,
			"count":2,
			"type":"VEC3"
		},
		{
			"bufferView":40,
			"componentType":5126,
			"count":49,
			"type":"VEC4"
		},
		{
			"bufferView":41,
			"componentType":5126,
			"count":2,
			"type":"VEC3"
		},
		{
			"bufferView":42,
			"componentType":5126,
			"count":2,
			"type":"VEC3"
		},
		{
			"bufferView":43,
			"componentType":5126,
			"count":49,
			"type":"VEC4"
		},
		{
			"bufferView":44,
			"componentType":5126,
			"count":2,
			"type":"VEC3"
		},
		{
			"bufferView":45,
			"componentType":5126,
			"count":2,
			"type":"VEC4"
		},
		{
			"bufferView":46,
			"componentType":5126,
			"count":2,
			"type":"VEC3"
		},
		{
			"bufferView":47,
			"componentType":5126,
			"count":2,
			"type":"VEC3"
		},
		{
			"bufferView":48,
			"componentType":5126,
			"count":2,
			"type":"VEC4"
		},
		{
			"bufferView":49,
			"componentType":5126,
			"count":2,
			"type":"VEC3"
		},
		{
			"bufferView":50,
			"componentType":5126,
			"count":2,
			"type":"VEC3"
		},
		{
			"bufferView":51,
			"componentType":5126,
			"count":2,
			"type":"VEC4"
		},
		{
			"bufferView":52,
			"componentType":5126,
			"count":2,
			"type":"VEC3"
		},
		{
			"bufferView":53,
			"componentType":5126,
			"count":49,
			"type":"VEC4"
		},
		{
			"bufferView":54,
			"componentType":5126,
			"count":2,
			"type":"VEC3"
		},
		{
			"bufferView":55,
			"componentType":5126,
			"count":2,
			"type":"VEC3"
		},
		{
			"bufferView":56,
			"componentType":5126,
			"count":49,
			"type":"VEC4"
		},
		{
			"bufferView":57,
			"componentType":5126,
			"count":2,
			"type":"VEC3"
		},
		{
			"bufferView":58,
			"componentType":5126,
			"count":2,
			"type":"VEC3"
		},
		{
			"bufferView":59,
			"componentType":5126,
			"count":49,
			"type":"VEC4"
		},
		{
			"bufferView":60,
			"componentType":5126,
			"count":2,
			"type":"VEC3"
		},
		{
			"bufferView":61,
			"componentType":5126,
			"count":2,
			"type":"VEC3"
		},
		{
			"bufferView":62,
			"componentType":5126,
			"count":2,
			"type":"VEC4"
		},
		{
			"bufferView":63,
			"componentType":5126,
			"count":2,
			"type":"VEC3"
		},
		{
			"bufferView":64,
			"componentType":5126,
			"count":2,
			"type":"VEC3"
		},
		{
			"bufferView":65,
			"componentType":5126,
			"count":49,
			"type":"VEC4"
		},
		{
			"bufferView":66,
			"componentType":5126,
			"count":2,
			"type":"VEC3"
		},
		{
			"bufferView":67,
			"componentType":5126,
			"count":2,
			"type":"VEC3"
		},
		{
			"bufferView":68,
			"componentType":5126,
			"count":49,
			"type":"VEC4"
		},
		{
			"bufferView":69,
			"componentType":5126,
			"count":2,
			"type":"VEC3"
		},
		{
			"bufferView":70,
			"componentType":5126,
			"count":2,
			"type":"VEC3"
		},
		{
			"bufferView":71,
			"componentType":5126,
			"count":49,
			"type":"VEC4"
		},
		{
			"bufferView":72,
			"componentType":5126,
			"count":2,
			"type":"VEC3"
		},
		{
			"bufferView":73,
			"componentType":5126,
			"count":2,
			"type":"VEC3"
		},
		{
			"bufferView":74,
			"componentType":5126,
			"count":2,
			"type":"VEC4"
		},
		{
			"bufferView":75,
			"componentType":5126,
			"count":2,
			"type":"VEC3"
		},
		{
			"bufferView":76,
			"componentType":5126,
			"count":2,
			"type":"VEC3"
		},
		{
			"bufferView":77,
			"componentType":5126,
			"count":2,
			"type":"VEC4"
		},
		{
			"bufferView":78,
			"componentType":5126,
			"count":2,
			"type":"VEC3"
		},
		{
			"bufferView":79,
			"componentType":5126,
			"count":2,
			"type":"VEC3"
		},
		{
			"bufferView":80,
			"componentType":5126,
			"count":2,
			"type":"VEC4"
		},
		{
			"bufferView":81,
			"componentType":5126,
			"count":49,
			"type":"VEC3"
		},
		{
			"bufferView":82,
			"componentType":5126,
			"count":2,
			"type":"VEC4"
		},
		{
			"bufferView":83,
			"componentType":5126,
			"count":2,
			"type":"VEC3"
		},
		{
			"bufferView":84,
			"componentType":5126,
			"count":49,
			"type":"VEC3"
		},
		{
			"bufferView":85,
			"componentType":5126,
			"count":2,
			"type":"VEC4"
		},
		{
			"bufferView":86,
			"componentType":5126,
			"count":49,
			"type":"VEC3"
		},
		{
			"bufferView":87,
			"componentType":5126,
			"count":2,
			"type":"VEC4"
		},
		{
			"bufferView":88,
			"componentType":5126,
			"count":2,
			"type":"VEC3"
		},
		{
			"bufferView":89,
			"componentType":5126,
			"count":49,
			"type":"VEC3"
		},
		{
			"bufferView":90,
			"componentType":5126,
			"count":2,
			"type":"VEC4"
		},
		{
			"bufferView":91,
			"componentType":5126,
			"count":49,
			"type":"VEC3"
		},
		{
			"bufferView":92,
			"componentType":5126,
			"count":2,
			"type":"VEC4"
		},
		{
			"bufferView":93,
			"componentType":5126,
			"count":2,
			"type":"VEC3"
		},
		{
			"bufferView":94,
			"componentType":5126,
			"count":49,
			"type":"VEC3"
		},
		{
			"bufferView":95,
			"componentType":5126,
			"count":2,
			"type":"VEC4"
		},
		{
			"bufferView":96,
			"componentType":5126,
			"count":16,
			"max":[
				0.5333333333333333
			],
			"min":[
				0.03333333333333333
			],
			"type":"SCALAR"
		},
		{
			"bufferView":97,
			"componentType":5126,
			"count":16,
			"type":"VEC3"
		},
		{
			"bufferView":98,
			"componentType":5126,
			"count":2,
			"max":[
				0.5333333333333333
			],
			"min":[
				0.03333333333333333
			],
			"type":"SCALAR"
		},
		{
			"bufferView":99,
			"componentType":5126,
			"count":2,
			"type":"VEC3"
		},
		{
			"bufferView":100,
			"componentType":5126,
			"count":2,
			"type":"VEC3"
		},
		{
			"bufferView":101,
			"componentType":5126,
			"count":2,
			"type":"VEC4"
		},
		{
			"bufferView":102,
			"componentType":5126,
			"count":2,
			"type":"VEC3"
		},
		{
			"bufferView":103,
			"componentType":5126,
			"count":2,
			"type":"VEC4"
		},
		{
			"bufferView":104,
			"componentType":5126,
			"count":2,
			"type":"VEC3"
		},
		{
			"bufferView":105,
			"componentType":5126,
			"count":2,
			"type":"VEC3"
		},
		{
			"bufferView":106,
			"componentType":5126,
			"count":2,
			"type":"VEC3"
		},
		{
			"bufferView":107,
			"componentType":5126,
			"count":16,
			"type":"VEC4"
		},
		{
			"bufferView":108,
			"componentType":5126,
			"count":2,
			"type":"VEC3"
		},
		{
			"bufferView":109,
			"componentType":5126,
			"count":2,
			"type":"VEC3"
		},
		{
			"bufferView":110,
			"componentType":5126,
			"count":16,
			"type":"VEC4"
		},
		{
			"bufferView":111,
			"componentType":5126,
			"count":2,
			"type":"VEC3"
		},
		{
			"bufferView":112,
			"componentType":5126,
			"count":2,
			"type":"VEC3"
		},
		{
			"bufferView":113,
			"componentType":5126,
			"count":16,
			"type":"VEC4"
		},
		{
			"bufferView":114,
			"componentType":5126,
			"count":2,
			"type":"VEC3"
		},
		{
			"bufferView":115,
			"componentType":5126,
			"count":16,
			"type":"VEC4"
		},
		{
			"bufferView":116,
			"componentType":5126,
			"count":2,
			"type":"VEC3"
		},
		{
			"bufferView":117,
			"componentType":5126,
			"count":2,
			"type":"VEC3"
		},
		{
			"bufferView":118,
			"componentType":5126,
			"count":16,
			"type":"VEC4"
		},
		{
			"bufferView":119,
			"componentType":5126,
			"count":2,
			"type":"VEC3"
		},
		{
			"bufferView":120,
			"componentType":5126,
			"count":2,
			"type":"VEC3"
		},
		{
			"bufferView":121,
			"componentType":5126,
			"count":16,
			"type":"VEC4"
		},
		{
			"bufferView":122,
			"componentType":5126,
			"count":2,
			"type":"VEC3"
		},
		{
			"bufferView":123,
			"componentType":5126,
			"count":2,
			"type":"VEC3"
		},
		{
			"bufferView":124,
			"componentType":5126,
			"count":16,
			"type":"VEC4"
		},
		{
			"bufferView":125,
			"componentType":5126,
			"count":2,
			"type":"VEC3"
		},
		{
			"bufferView":126,
			"componentType":5126,
			"count":2,
			"type":"VEC3"
		},
		{
			"bufferView":127,
			"componentType":5126,
			"count":16,
			"type":"VEC4"
		},
		{
			"bufferView":128,
			"componentType":5126,
			"count":2,
			"type":"VEC3"
		},
		{
			"bufferView":129,
			"componentType":5126,
			"count":2,
			"type":"VEC3"
		},
		{
			"bufferView":130,
			"componentType":5126,
			"count":2,
			"type":"VEC3"
		},
		{
			"bufferView":131,
			"componentType":5126,
			"count":2,
			"type":"VEC3"
		},
		{
			"bufferView":132,
			"componentType":5126,
			"count":2,
			"type":"VEC3"
		},
		{
			"bufferView":133,
			"componentType":5126,
			"count":16,
			"type":"VEC4"
		},
		{
			"bufferView":134,
			"componentType":5126,
			"count":2,
			"type":"VEC3"
		},
		{
			"bufferView":135,
			"componentType":5126,
			"count":2,
			"type":"VEC3"
		},
		{
			"bufferView":136,
			"componentType":5126,
			"count":16,
			"type":"VEC4"
		},
		{
			"bufferView":137,
			"componentType":5126,
			"count":2,
			"type":"VEC3"
		},
		{
			"bufferView":138,
			"componentType":5126,
			"count":2,
			"type":"VEC3"
		},
		{
			"bufferView":139,
			"componentType":5126,
			"count":16,
			"type":"VEC4"
		},
		{
			"bufferView":140,
			"componentType":5126,
			"count":2,
			"type":"VEC3"
		},
		{
			"bufferView":141,
			"componentType":5126,
			"count":2,
			"type":"VEC3"
		},
		{
			"bufferView":142,
			"componentType":5126,
			"count":16,
			"type":"VEC4"
		},
		{
			"bufferView":143,
			"componentType":5126,
			"count":2,
			"type":"VEC3"
		},
		{
			"bufferView":144,
			"componentType":5126,
			"count":2,
			"type":"VEC3"
		},
		{
			"bufferView":145,
			"componentType":5126,
			"count":16,
			"type":"VEC4"
		},
		{
			"bufferView":146,
			"componentType":5126,
			"count":2,
			"type":"VEC3"
		},
		{
			"bufferView":147,
			"componentType":5126,
			"count":2,
			"type":"VEC3"
		},
		{
			"bufferView":148,
			"componentType":5126,
			"count":16,
			"type":"VEC4"
		},
		{
			"bufferView":149,
			"componentType":5126,
			"count":2,
			"type":"VEC3"
		},
		{
			"bufferView":150,
			"componentType":5126,
			"count":2,
			"type":"VEC3"
		},
		{
			"bufferView":151,
			"componentType":5126,
			"count":16,
			"type":"VEC4"
		},
		{
			"bufferView":152,
			"componentType":5126,
			"count":2,
			"type":"VEC3"
		},
		{
			"bufferView":153,
			"componentType":5126,
			"count":2,
			"type":"VEC3"
		},
		{
			"bufferView":154,
			"componentType":5126,
			"count":16,
			"type":"VEC4"
		},
		{
			"bufferView":155,
			"componentType":5126,
			"count":16,
			"type":"VEC3"
		},
		{
			"bufferView":156,
			"componentType":5126,
			"count":16,
			"type":"VEC3"
		},
		{
			"bufferView":157,
			"componentType":5126,
			"count":2,
			"type":"VEC3"
		},
		{
			"bufferView":158,
			"componentType":5126,
			"count":2,
			"type":"VEC3"
		},
		{
			"bufferView":159,
			"componentType":5126,
			"count":16,
			"type":"VEC3"
		},
		{
			"bufferView":160,
			"componentType":5126,
			"count":16,
			"type":"VEC3"
		}
	],
	"bufferViews":[
		{
			"buffer":0,
			"byteLength":15360,
			"byteOffset":0,
			"target":34962
		},
		{
			"buffer":0,
			"byteLength":15360,
			"byteOffset":15360,
			"target":34962
		},
		{
			"buffer":0,
			"byteLength":10240,
			"byteOffset":30720,
			"target":34962
		},
		{
			"buffer":0,
			"byteLength":5120,
			"byteOffset":40960,
			"target":34962
		},
		{
			"buffer":0,
			"byteLength":20480,
			"byteOffset":46080,
			"target":34962
		},
		{
			"buffer":0,
			"byteLength":12492,
			"byteOffset":66560,
			"target":34963
		},
		{
			"buffer":0,
			"byteLength":2048,
			"byteOffset":79052
		},
		{
			"buffer":0,
			"byteLength":900,
			"byteOffset":81100,
			"target":34962
		},
		{
			"buffer":0,
			"byteLength":900,
			"byteOffset":82000,
			"target":34962
		},
		{
			"buffer":0,
			"byteLength":600,
			"byteOffset":82900,
			"target":34962
		},
		{
			"buffer":0,
			"byteLength":312,
			"byteOffset":83500,
			"target":34963
		},
		{
			"buffer":0,
			"byteLength":196,
			"byteOffset":83812
		},
		{
			"buffer":0,
			"byteLength":588,
			"byteOffset":84008
		},
		{
			"buffer":0,
			"byteLength":8,
			"byteOffset":84596
		},
		{
			"buffer":0,
			"byteLength":32,
			"byteOffset":84604
		},
		{
			"buffer":0,
			"byteLength":24,
			"byteOffset":84636
		},
		{
			"buffer":0,
			"byteLength":24,
			"byteOffset":84660
		},
		{
			"buffer":0,
			"byteLength":32,
			"byteOffset":84684
		},
		{
			"buffer":0,
			"byteLength":24,
			"byteOffset":84716
		},
		{
			"buffer":0,
			"byteLength":24,
			"byteOffset":84740
		},
		{
			"buffer":0,
			"byteLength":24,
			"byteOffset":84764
		},
		{
			"buffer":0,
			"byteLength":32,
			"byteOffset":84788
		},
		{
			"buffer":0,
			"byteLength":24,
			"byteOffset":84820
		},
		{
			"buffer":0,
			"byteLength":784,
			"byteOffset":84844
		},
		{
			"buffer":0,
			"byteLength":24,
			"byteOffset":85628
		},
		{
			"buffer":0,
			"byteLength":24,
			"byteOffset":85652
		},
		{
			"buffer":0,
			"byteLength":784,
			"byteOffset":85676
		},
		{
			"buffer":0,
			"byteLength":24,
			"byteOffset":86460
		},
		{
			"buffer":0,
			"byteLength":24,
			"byteOffset":86484
		},
		{
			"buffer":0,
			"byteLength":784,
			"byteOffset":86508
		},
		{
			"buffer":0,
			"byteLength":24,
			"byteOffset":87292
		},
		{
			"buffer":0,
			"byteLength":24,
			"byteOffset":87316
		},
		{
			"buffer":0,
			"byteLength":784,
			"byteOffset":87340
		},
		{
			"buffer":0,
			"byteLength":24,
			"byteOffset":88124
		},
		{
			"buffer":0,
			"byteLength":24,
			"byteOffset":88148
		},
		{
			"buffer":0,
			"byteLength":784,
			"byteOffset":88172
		},
		{
			"buffer":0,
			"byteLength":24,
			"byteOffset":88956
		},
		{
			"buffer":0,
			"byteLength":784,
			"byteOffset":88980
		},
		{
			"buffer":0,
			"byteLength":24,
			"byteOffset":89764
		},
		{
			"buffer":0,
			"byteLength":24,
			"byteOffset":89788
		},
		{
			"buffer":0,
			"byteLength":784,
			"byteOffset":89812
		},
		{
			"buffer":0,
			"byteLength":24,
			"byteOffset":90596
		},
		{
			"buffer":0,
			"byteLength":24,
			"byteOffset":90620
		},
		{
			"buffer":0,
			"byteLength":784,
			"byteOffset":90644
		},
		{
			"buffer":0,
			"byteLength":24,
			"byteOffset":91428
		},
		{
			"buffer":0,
			"byteLength":32,
			"byteOffset":91452
		},
		{
			"buffer":0,
			"byteLength":24,
			"byteOffset":91484
		},
		{
			"buffer":0,
			"byteLength":24,
			"byteOffset":91508
		},
		{
			"buffer":0,
			"byteLength":32,
			"byteOffset":91532
		},
		{
			"buffer":0,
			"byteLength":24,
			"byteOffset":91564
		},
		{
			"buffer":0,
			"byteLength":24,
			"byteOffset":91588
		},
		{
			"buffer":0,
			"byteLength":32,
			"byteOffset":91612
		},
		{
			"buffer":0,
			"byteLength":24,
			"byteOffset":91644
		},
		{
			"buffer":0,
			"byteLength":784,
			"byteOffset":91668
		},
		{
			"buffer":0,
			"byteLength":24,
			"byteOffset":92452
		},
		{
			"buffer":0,
			"byteLength":24,
			"byteOffset":92476
		},
		{
			"buffer":0,
			"byteLength":784,
			"byteOffset":92500
		},
		{
			"buffer":0,
			"byteLength":24,
			"byteOffset":93284
		},
		{
			"buffer":0,
			"byteLength":24,
			"byteOffset":93308
		},
		{
			"buffer":0,
			"byteLength":784,
			"byteOffset":93332
		},
		{
			"buffer":0,
			"byteLength":24,
			"byteOffset":94116
		},
		{
			"buffer":0,
			"byteLength":24,
			"byteOffset":94140
		},
		{
			"buffer":0,
			"byteLength":32,
			"byteOffset":94164
		},
		{
			"buffer":0,
			"byteLength":24,
			"byteOffset":94196
		},
		{
			"buffer":0,
			"byteLength":24,
			"byteOffset":94220
		},
		{
			"buffer":0,
			"byteLength":784,
			"byteOffset":94244
		},
		{
			"buffer":0,
			"byteLength":24,
			"byteOffset":95028
		},
		{
			"buffer":0,
			"byteLength":24,
			"byteOffset":95052
		},
		{
			"buffer":0,
			"byteLength":784,
			"byteOffset":95076
		},
		{
			"buffer":0,
			"byteLength":24,
			"byteOffset":95860
		},
		{
			"buffer":0,
			"byteLength":24,
			"byteOffset":95884
		},
		{
			"buffer":0,
			"byteLength":784,
			"byteOffset":95908
		},
		{
			"buffer":0,
			"byteLength":24,
			"byteOffset":96692
		},
		{
			"buffer":0,
			"byteLength":24,
			"byteOffset":96716
		},
		{
			"buffer":0,
			"byteLength":32,
			"byteOffset":96740
		},
		{
			"buffer":0,
			"byteLength":24,
			"byteOffset":96772
		},
		{
			"buffer":0,
			"byteLength":24,
			"byteOffset":96796
		},
		{
			"buffer":0,
			"byteLength":32,
			"byteOffset":96820
		},
		{
			"buffer":0,
			"byteLength":24,
			"byteOffset":96852
		},
		{
			"buffer":0,
			"byteLength":24,
			"byteOffset":96876
		},
		{
			"buffer":0,
			"byteLength":32,
			"byteOffset":96900
		},
		{
			"buffer":0,
			"byteLength":588,
			"byteOffset":96932
		},
		{
			"buffer":0,
			"byteLength":32,
			"byteOffset":97520
		},
		{
			"buffer":0,
			"byteLength":24,
			"byteOffset":97552
		},
		{
			"buffer":0,
			"byteLength":588,
			"byteOffset":97576
		},
		{
			"buffer":0,
			"byteLength":32,
			"byteOffset":98164
		},
		{
			"buffer":0,
			"byteLength":588,
			"byteOffset":98196
		},
		{
			"buffer":0,
			"byteLength":32,
			"byteOffset":98784
		},
		{
			"buffer":0,
			"byteLength":24,
			"byteOffset":98816
		},
		{
			"buffer":0,
			"byteLength":588,
			"byteOffset":98840
		},
		{
			"buffer":0,
			"byteLength":32,
			"byteOffset":99428
		},
		{
			"buffer":0,
			"byteLength":588,
			"byteOffset":99460
		},
		{
			"buffer":0,
			"byteLength":32,
			"byteOffset":100048
		},
		{
			"buffer":0,
			"byteLength":24,
			"byteOffset":100080
		},
		{
			"buffer":0,
			"byteLength":588,
			"byteOffset":100104
		},
		{
			"buffer":0,
			"byteLength":32,
			"byteOffset":100692
		},
		{
			"buffer":0,
			"byteLength":64,
			"byteOffset":100724
		},
		{
			"buffer":0,
			"byteLength":192,
			"byteOffset":100788
		},
		{
			"buffer":0,
			"byteLength":8,
			"byteOffset":100980
		},
		{
			"buffer":0,
			"byteLength":24,
			"byteOffset":100988
		},
		{
			"buffer":0,
			"byteLength":24,
			"byteOffset":101012
		},
		{
			"buffer":0,
			"byteLength":32,
			"byteOffset":101036
		},
		{
			"buffer":0,
			"byteLength":24,
			"byteOffset":101068
		},
		{
			"buffer":0,
			"byteLength":32,
			"byteOffset":101092
		},
		{
			"buffer":0,
			"byteLength":24,
			"byteOffset":101124
		},
		{
			"buffer":0,
			"byteLength":24,
			"byteOffset":101148
		},
		{
			"buffer":0,
			"byteLength":24,
			"byteOffset":101172
		},
		{
			"buffer":0,
			"byteLength":256,
			"byteOffset":101196
		},
		{
			"buffer":0,
			"byteLength":24,
			"byteOffset":101452
		},
		{
			"buffer":0,
			"byteLength":24,
			"byteOffset":101476
		},
		{
			"buffer":0,
			"byteLength":256,
			"byteOffset":101500
		},
		{
			"buffer":0,
			"byteLength":24,
			"byteOffset":101756
		},
		{
			"buffer":0,
			"byteLength":24,
			"byteOffset":101780
		},
		{
			"buffer":0,
			"byteLength":256,
			"byteOffset":101804
		},
		{
			"buffer":0,
			"byteLength":24,
			"byteOffset":102060
		},
		{
			"buffer":0,
			"byteLength":256,
			"byteOffset":102084
		},
		{
			"buffer":0,
			"byteLength":24,
			"byteOffset":102340
		},
		{
			"buffer":0,
			"byteLength":24,
			"byteOffset":102364
		},
		{
			"buffer":0,
			"byteLength":256,
			"byteOffset":102388
		},
		{
			"buffer":0,
			"byteLength":24,
			"byteOffset":102644
		},
		{
			"buffer":0,
			"byteLength":24,
			"byteOffset":102668
		},
		{
			"buffer":0,
			"byteLength":256,
			"byteOffset":102692
		},
		{
			"buffer":0,
			"byteLength":24,
			"byteOffset":102948
		},
		{
			"buffer":0,
			"byteLength":24,
			"byteOffset":102972
		},
		{
			"buffer":0,
			"byteLength":256,
			"byteOffset":102996
		},
		{
			"buffer":0,
			"byteLength":24,
			"byteOffset":103252
		},
		{
			"buffer":0,
			"byteLength":24,
			"byteOffset":103276
		},
		{
			"buffer":0,
			"byteLength":256,
			"byteOffset":103300
		},
		{
			"buffer":0,
			"byteLength":24,
			"byteOffset":103556
		},
		{
			"buffer":0,
			"byteLength":24,
			"byteOffset":103580
		},
		{
			"buffer":0,
			"byteLength":24,
			"byteOffset":103604
		},
		{
			"buffer":0,
			"byteLength":24,
			"byteOffset":103628
		},
		{
			"buffer":0,
			"byteLength":24,
			"byteOffset":103652
		},
		{
			"buffer":0,
			"byteLength":256,
			"byteOffset":103676
		},
		{
			"buffer":0,
			"byteLength":24,
			"byteOffset":103932
		},
		{
			"buffer":0,
			"byteLength":24,
			"byteOffset":103956
		},
		{
			"buffer":0,
			"byteLength":256,
			"byteOffset":103980
		},
		{
			"buffer":0,
			"byteLength":24,
			"byteOffset":104236
		},
		{
			"buffer":0,
			"byteLength":24,
			"byteOffset":104260
		},
		{
			"buffer":0,
			"byteLength":256,
			"byteOffset":104284
		},
		{
			"buffer":0,
			"byteLength":24,
			"byteOffset":104540
		},
		{
			"buffer":0,
			"byteLength":24,
			"byteOffset":104564
		},
		{
			"buffer":0,
			"byteLength":256,
			"byteOffset":104588
		},
		{
			"buffer":0,
			"byteLength":24,
			"byteOffset":104844
		},
		{
			"buffer":0,
			"byteLength":24,
			"byteOffset":104868
		},
		{
			"buffer":0,
			"byteLength":256,
			"byteOffset":104892
		},
		{
			"buffer":0,
			"byteLength":24,
			"byteOffset":105148
		},
		{
			"buffer":0,
			"byteLength":24,
			"byteOffset":105172
		},
		{
			"buffer":0,
			"byteLength":256,
			"byteOffset":105196
		},
		{
			"buffer":0,
			"byteLength":24,
			"byteOffset":105452
		},
		{
			"buffer":0,
			"byteLength":24,
			"byteOffset":105476
		},
		{
			"buffer":0,
			"byteLength":256,
			"byteOffset":105500
		},
		{
			"buffer":0,
			"byteLength":24,
			"byteOffset":105756
		},
		{
			"buffer":0,
			"byteLength":24,
			"byteOffset":105780
		},
		{
			"buffer":0,
			"byteLength":256,
			"byteOffset":105804
		},
		{
			"buffer":0,
			"byteLength":192,
			"byteOffset":106060
		},
		{
			"buffer":0,
			"byteLength":192,
			"byteOffset":106252
		},
		{
			"buffer":0,
			"byteLength":24,
			"byteOffset":106444
		},
		{
			"buffer":0,
			"byteLength":24,
			"byteOffset":106468
		},
		{
			"buffer":0,
			"byteLength":192,
			"byteOffset":106492
		},
		{
			"buffer":0,
			"byteLength":192,
			"byteOffset":106684
		}
	],
	"samplers":[
		{
			"magFilter":9729,
			"minFilter":9987
		}
	],
	"buffers":[
		{
			"byteLength":106876,
			"uri":"BlackCat.bin"
		}
	]
}
