{
	"asset":{
		"generator":"Khronos glTF Blender I/O v5.1.20",
		"version":"2.0"
	},
	"scene":0,
	"scenes":[
		{
			"name":"Scene",
			"nodes":[
				0,
				1,
				2,
				3,
				4,
				5,
				6
			]
		}
	],
	"nodes":[
		{
			"mesh":0,
			"name":"Ground",
			"scale":[
				3,
				1.049888253211975,
				1.0499999523162842
			],
			"translation":[
				-0.009999999776482582,
				-0.06999999284744263,
				0
			]
		},
		{
			"mesh":1,
			"name":"Ceiling",
			"scale":[
				3,
				1.049888253211975,
				1.0499999523162842
			],
			"translation":[
				0,
				2,
				0
			]
		},
		{
			"mesh":2,
			"name":"LeftWall",
			"rotation":[
				0.3779767155647278,
				-0.06001666560769081,
				-0.03270931541919708,
				0.9232885241508484
			],
			"scale":[
				0.01943778246641159,
				0.020588034763932228,
				0.02052212320268154
			],
			"translation":[
				-3.3101460933685303,
				0.9363120794296265,
				0.0007634758949279785
			]
		},
		{
			"mesh":3,
			"name":"LeftPlane",
			"rotation":[
				0,
				0,
				-0.7071068286895752,
				0.7071068286895752
			],
			"scale":[
				1.3202979564666748,
				1.3202979564666748,
				1.3202979564666748
			],
			"translation":[
				-3.435948371887207,
				1.008388876914978,
				-0.027964621782302856
			]
		},
		{
			"mesh":4,
			"name":"RightWall",
			"rotation":[
				-0.03270931541919708,
				0.9232885241508484,
				-0.3779767155647278,
				0.060016654431819916
			],
			"scale":[
				0.01943778246641159,
				0.020588034763932228,
				0.02052212320268154
			],
			"translation":[
				3.293121337890625,
				0.9363120794296265,
				-0.02796461246907711
			]
		},
		{
			"mesh":5,
			"name":"RightPlane",
			"rotation":[
				0.7071068286895752,
				-0.7071068286895752,
				0,
				5.338509012631221e-08
			],
			"scale":[
				1.3202979564666748,
				1.3202979564666748,
				1.3202979564666748
			],
			"translation":[
				3.4489235877990723,
				1.008388876914978,
				0.0007634665817022324
			]
		},
		{
			"mesh":6,
			"name":"Vents",
			"translation":[
				0,
				1.5,
				0
			]
		}
	],
	"materials":[
		{
			"doubleSided":true,
			"name":"Material",
			"pbrMetallicRoughness":{
				"baseColorTexture":{
					"index":0
				},
				"metallicFactor":0
			}
		},
		{
			"doubleSided":true,
			"name":"Palette",
			"pbrMetallicRoughness":{
				"baseColorTexture":{
					"index":1
				},
				"metallicFactor":0,
				"roughnessFactor":0.5
			}
		},
		{
			"alphaMode":"BLEND",
			"doubleSided":true,
			"name":"Glass",
			"pbrMetallicRoughness":{
				"baseColorFactor":[
					1,
					1,
					1,
					0.5
				],
				"baseColorTexture":{
					"index":2
				},
				"metallicFactor":0,
				"roughnessFactor":0.5
			}
		},
		{
			"alphaMode":"MASK",
			"doubleSided":true,
			"name":"holes",
			"pbrMetallicRoughness":{
				"baseColorFactor":[
					0.800000011920929,
					0.800000011920929,
					0.800000011920929,
					1
				],
				"baseColorTexture":{
					"index":3
				},
				"metallicFactor":0,
				"roughnessFactor":0.5272727012634277
			}
		}
	],
	"meshes":[
		{
			"name":"Plane",
			"primitives":[
				{
					"attributes":{
						"POSITION":0,
						"NORMAL":1,
						"TEXCOORD_0":2
					},
					"indices":3,
					"material":0
				}
			]
		},
		{
			"name":"Plane.004",
			"primitives":[
				{
					"attributes":{
						"POSITION":4,
						"NORMAL":5,
						"TEXCOORD_0":6
					},
					"indices":3,
					"material":1
				}
			]
		},
		{
			"name":"Cylinder.005",
			"primitives":[
				{
					"attributes":{
						"POSITION":7,
						"NORMAL":8,
						"TEXCOORD_0":9
					},
					"indices":10,
					"material":2
				},
				{
					"attributes":{
						"POSITION":11,
						"NORMAL":12,
						"TEXCOORD_0":13
					},
					"indices":14,
					"material":1
				}
			]
		},
		{
			"name":"Plane.001",
			"primitives":[
				{
					"attributes":{
						"POSITION":15,
						"NORMAL":16,
						"TEXCOORD_0":17
					},
					"indices":18,
					"material":3
				}
			]
		},
		{
			"name":"Cylinder.001",
			"primitives":[
				{
					"attributes":{
						"POSITION":19,
						"NORMAL":20,
						"TEXCOORD_0":21
					},
					"indices":10,
					"material":2
				},
				{
					"attributes":{
						"POSITION":22,
						"NORMAL":23,
						"TEXCOORD_0":24
					},
					"indices":14,
					"material":1
				}
			]
		},
		{
			"name":"Plane.002",
			"primitives":[
				{
					"attributes":{
						"POSITION":25,
						"NORMAL":26,
						"TEXCOORD_0":27
					},
					"indices":18,
					"material":3
				}
			]
		},
		{
			"name":"Cube.002",
			"primitives":[
				{
					"attributes":{
						"POSITION":28,
						"NORMAL":29,
						"TEXCOORD_0":30
					},
					"indices":31,
					"material":1
				}
			]
		}
	],
	"textures":[
		{
			"sampler":0,
			"source":0
		},
		{
			"sampler":0,
			"source":1
		},
		{
			"sampler":0,
			"source":2
		},
		{
			"sampler":0,
			"source":3
		}
	],
	"images":[
		{
			"mimeType":"image/jpeg",
			"name":"imgp5493_seamless_1",
			"uri":"imgp5493_seamless_1.jpg"
		},
		{
			"mimeType":"image/png",
			"name":"Palette42Run",
			"uri":"Palette42Run.png"
		},
		{
			"mimeType":"image/png",
			"name":"glass",
			"uri":"glass.png"
		},
		{
			"mimeType":"image/png",
			"name":"transparentHole",
			"uri":"transparentHole.png"
		}
	],
	"accessors":[
		{
			"bufferView":0,
			"componentType":5126,
			"count":28,
			"max":[
				1,
				0,
				1
			],
			"min":[
				-1,
				-0.04762411490082741,
				-1
			],
			"type":"VEC3"
		},
		{
			"bufferView":1,
			"componentType":5126,
			"count":28,
			"type":"VEC3"
		},
		{
			"bufferView":2,
			"componentType":5126,
			"count":28,
			"type":"VEC2"
		},
		{
			"bufferView":3,
			"componentType":5123,
			"count":42,
			"type":"SCALAR"
		},
		{
			"bufferView":4,
			"componentType":5126,
			"count":28,
			"max":[
				1,
				0,
				1
			],
			"min":[
				-1,
				-0.04762411490082741,
				-1
			],
			"type":"VEC3"
		},
		{
			"bufferView":5,
			"componentType":5126,
			"count":28,
			"type":"VEC3"
		},
		{
			"bufferView":6,
			"componentType":5126,
			"count":28,
			"type":"VEC2"
		},
		{
			"bufferView":7,
			"componentType":5126,
			"count":16,
			"max":[
				14.204986572265625,
				61.127235412597656,
				59.72547912597656
			],
			"min":[
				-2.4377899169921875,
				-61.322837829589844,
				-61.605892181396484
			],
			"type":"VEC3"
		},
		{
			"bufferView":8,
			"componentType":5126,
			"count":16,
			"type":"VEC3"
		},
		{
			"bufferView":9,
			"componentType":5126,
			"count":16,
			"type":"VEC2"
		},
		{
			"bufferView":10,
			"componentType":5123,
			"count":24,
			"type":"SCALAR"
		},
		{
			"bufferView":11,
			"componentType":5126,
			"count":440,
			"max":[
				25.286884307861328,
				72.79237365722656,
				71.85110473632812
			],
			"min":[
				-9.226181030273438,
				-72.9233169555664,
				-74.33260345458984
			],
			"type":"VEC3"
		},
		{
			"bufferView":12,
			"componentType":5126,
			"count":440,
			"type":"VEC3"
		},
		{
			"bufferView":13,
			"componentType":5126,
			"count":440,
			"type":"VEC2"
		},
		{
			"bufferView":14,
			"componentType":5123,
			"count":900,
			"type":"SCALAR"
		},
		{
			"bufferView":15,
			"componentType":5126,
			"count":4,
			"max":[
				1,
				0,
				1
			],
			"min":[
				-1,
				0,
				-1
			],
			"type":"VEC3"
		},
		{
			"bufferView":16,
			"componentType":5126,
			"count":4,
			"type":"VEC3"
		},
		{
			"bufferView":17,
			"componentType":5126,
			"count":4,
			"type":"VEC2"
		},
		{
			"bufferView":18,
			"componentType":5123,
			"count":6,
			"type":"SCALAR"
		},
		{
			"bufferView":19,
			"componentType":5126,
			"count":16,
			"max":[
				14.204986572265625,
				61.127235412597656,
				59.72547912597656
			],
			"min":[
				-2.4377899169921875,
				-61.322837829589844,
				-61.605892181396484
			],
			"type":"VEC3"
		},
		{
			"bufferView":20,
			"componentType":5126,
			"count":16,
			"type":"VEC3"
		},
		{
			"bufferView":21,
			"componentType":5126,
			"count":16,
			"type":"VEC2"
		},
		{
			"bufferView":22,
			"componentType":5126,
			"count":440,
			"max":[
				25.286884307861328,
				72.79237365722656,
				71.85110473632812
			],
			"min":[
				-9.226181030273438,
				-72.9233169555664,
				-74.33260345458984
			],
			"type":"VEC3"
		},
		{
			"bufferView":23,
			"componentType":5126,
			"count":440,
			"type":"VEC3"
		},
		{
			"bufferView":24,
			"componentType":5126,
			"count":440,
			"type":"VEC2"
		},
		{
			"bufferView":25,
			"componentType":5126,
			"count":4,
			"max":[
				1,
				0,
				1
			],
			"min":[
				-1,
				0,
				-1
			],
			"type":"VEC3"
		},
		{
			"bufferView":26,
			"componentType":5126,
			"count":4,
			"type":"VEC3"
		},
		{
			"bufferView":27,
			"componentType":5126,
			"count":4,
			"type":"VEC2"
		},
		{
			"bufferView":28,
			"componentType":5126,
			"count":180,
			"max":[
				0.3083169460296631,
				0.4591291546821594,
				1.0484323501586914
			],
			"min":[
				-0.3083169460296631,
				0.254756897687912,
				-1.047249674797058
			],
			"type":"VEC3"
		},
		{
			"bufferView":29,
			"componentType":5126,
			"count":180,
			"type":"VEC3"
		},
		{
			"bufferView":30,
			"componentType":5126,
			"count":180,
			"type":"VEC2"
		},
		{
			"bufferView":31,
			"componentType":5123,
			"count":348,
			"type":"SCALAR"
		}
	],
	"bufferViews":[
		{
			"buffer":0,
			"byteLength":336,
			"byteOffset":0,
			"target":34962
		},
		{
			"buffer":0,
			"byteLength":336,
			"byteOffset":336,
			"target":34962
		},
		{
			"buffer":0,
			"byteLength":224,
			"byteOffset":672,
			"target":34962
		},
		{
			"buffer":0,
			"byteLength":84,
			"byteOffset":896,
			"target":34963
		},
		{
			"buffer":0,
			"byteLength":336,
			"byteOffset":980,
			"target":34962
		},
		{
			"buffer":0,
			"byteLength":336,
			"byteOffset":1316,
			"target":34962
		},
		{
			"buffer":0,
			"byteLength":224,
			"byteOffset":1652,
			"target":34962
		},
		{
			"buffer":0,
			"byteLength":192,
			"byteOffset":1876,
			"target":34962
		},
		{
			"buffer":0,
			"byteLength":192,
			"byteOffset":2068,
			"target":34962
		},
		{
			"buffer":0,
			"byteLength":128,
			"byteOffset":2260,
			"target":34962
		},
		{
			"buffer":0,
			"byteLength":48,
			"byteOffset":2388,
			"target":34963
		},
		{
			"buffer":0,
			"byteLength":5280,
			"byteOffset":2436,
			"target":34962
		},
		{
			"buffer":0,
			"byteLength":5280,
			"byteOffset":7716,
			"target":34962
		},
		{
			"buffer":0,
			"byteLength":3520,
			"byteOffset":12996,
			"target":34962
		},
		{
			"buffer":0,
			"byteLength":1800,
			"byteOffset":16516,
			"target":34963
		},
		{
			"buffer":0,
			"byteLength":48,
			"byteOffset":18316,
			"target":34962
		},
		{
			"buffer":0,
			"byteLength":48,
			"byteOffset":18364,
			"target":34962
		},
		{
			"buffer":0,
			"byteLength":32,
			"byteOffset":18412,
			"target":34962
		},
		{
			"buffer":0,
			"byteLength":12,
			"byteOffset":18444,
			"target":34963
		},
		{
			"buffer":0,
			"byteLength":192,
			"byteOffset":18456,
			"target":34962
		},
		{
			"buffer":0,
			"byteLength":192,
			"byteOffset":18648,
			"target":34962
		},
		{
			"buffer":0,
			"byteLength":128,
			"byteOffset":18840,
			"target":34962
		},
		{
			"buffer":0,
			"byteLength":5280,
			"byteOffset":18968,
			"target":34962
		},
		{
			"buffer":0,
			"byteLength":5280,
			"byteOffset":24248,
			"target":34962
		},
		{
			"buffer":0,
			"byteLength":3520,
			"byteOffset":29528,
			"target":34962
		},
		{
			"buffer":0,
			"byteLength":48,
			"byteOffset":33048,
			"target":34962
		},
		{
			"buffer":0,
			"byteLength":48,
			"byteOffset":33096,
			"target":34962
		},
		{
			"buffer":0,
			"byteLength":32,
			"byteOffset":33144,
			"target":34962
		},
		{
			"buffer":0,
			"byteLength":2160,
			"byteOffset":33176,
			"target":34962
		},
		{
			"buffer":0,
			"byteLength":2160,
			"byteOffset":35336,
			"target":34962
		},
		{
			"buffer":0,
			"byteLength":1440,
			"byteOffset":37496,
			"target":34962
		},
		{
			"buffer":0,
			"byteLength":696,
			"byteOffset":38936,
			"target":34963
		}
	],
	"samplers":[
		{
			"magFilter":9729,
			"minFilter":9987
		}
	],
	"buffers":[
		{
			"byteLength":39632,
			"uri":"Chunk.bin"
		}
	]
}
