{
	"asset":{
		"generator":"Khronos glTF Blender I/O v5.2.39",
		"version":"2.0"
	},
	"scene":0,
	"scenes":[
		{
			"name":"Scene",
			"nodes":[
				0,
				2,
				4,
				8,
				9,
				10,
				11,
				12,
				13,
				17
			]
		}
	],
	"nodes":[
		{
			"mesh":0,
			"name":"Closed",
			"rotation":[
				-0.5,
				0.5,
				-0.5,
				0.5000000596046448
			],
			"scale":[
				2,
				2,
				2
			],
			"translation":[
				-0.009314940311014652,
				-0.1442125141620636,
				0.8693985939025879
			]
		},
		{
			"mesh":1,
			"name":"Left_Cyl_Pied",
			"scale":[
				0.09425969421863556,
				0.09425969421863556,
				0.09425969421863556
			],
			"translation":[
				-0.013417243957519531,
				0.09112215042114258,
				0.6142838001251221
			]
		},
		{
			"children":[
				1
			],
			"mesh":2,
			"name":"Computer 1",
			"scale":[
				0.3929347097873688,
				0.3929347097873688,
				0.3929347097873688
			],
			"translation":[
				1.276659607887268,
				1.7430897951126099,
				0.1849800944328308
			]
		},
		{
			"mesh":3,
			"name":"Cylinder.002",
			"scale":[
				0.09425969421863556,
				0.09425969421863556,
				0.09425969421863556
			],
			"translation":[
				0.018984079360961914,
				0.09426021575927734,
				0.6491556167602539
			]
		},
		{
			"children":[
				3
			],
			"mesh":4,
			"name":"Computer 2",
			"scale":[
				0.3929347097873688,
				0.3929347097873688,
				0.3929347097873688
			],
			"translation":[
				-1.240231990814209,
				1.7430897951126099,
				0.1849800944328308
			]
		},
		{
			"mesh":5,
			"name":"Lpied",
			"scale":[
				0.8145389556884766,
				0.8145389556884766,
				0.8145389556884766
			],
			"translation":[
				-0.34541234374046326,
				-1.0753417015075684,
				-0.6318244934082031
			]
		},
		{
			"mesh":6,
			"name":"Rpied",
			"scale":[
				0.8145389556884766,
				0.8145389556884766,
				0.8145389556884766
			],
			"translation":[
				-0.3454122543334961,
				-1.0753417015075684,
				-3.0848443508148193
			]
		},
		{
			"mesh":7,
			"name":"underplane",
			"scale":[
				1.0078980922698975,
				1.0078980922698975,
				1.0078980922698975
			],
			"translation":[
				-0.3460724353790283,
				-1.2220261096954346,
				-0.6369802355766296
			]
		},
		{
			"children":[
				5,
				6,
				7
			],
			"mesh":8,
			"name":"Desk",
			"rotation":[
				0,
				0.7071068286895752,
				0,
				0.7071068286895752
			],
			"scale":[
				2,
				2,
				2
			],
			"translation":[
				0.0028365934267640114,
				2,
				-0.05328412726521492
			]
		},
		{
			"mesh":9,
			"name":"OBSTACLE_bumpLeftDesk",
			"translation":[
				2.535785675048828,
				0.7055185437202454,
				0
			]
		},
		{
			"mesh":10,
			"name":"OBSTACLE_bumpLeftFoot",
			"translation":[
				2.3099026679992676,
				0.5245257019996643,
				0
			]
		},
		{
			"mesh":11,
			"name":"OBSTACLE_bumpRightDesk",
			"translation":[
				-4.391661167144775,
				0.7055185437202454,
				0
			]
		},
		{
			"mesh":12,
			"name":"OBSTACLE_bumpRightFoot",
			"translation":[
				-2.605221748352051,
				0.5245257019996643,
				0
			]
		},
		{
			"mesh":13,
			"name":"OBSTACLE_killClosed",
			"translation":[
				0,
				0.5319139957427979,
				1.84272038936615
			]
		},
		{
			"mesh":14,
			"name":"OBSTACLE_killLeftFoot",
			"translation":[
				1.649183750152588,
				-0.6648357510566711,
				0.422081857919693
			]
		},
		{
			"mesh":15,
			"name":"OBSTACLE_killPlatedesk",
			"translation":[
				0,
				0.07707548141479492,
				-1.911484956741333
			]
		},
		{
			"mesh":16,
			"name":"OBSTACLE_killRightFoot",
			"translation":[
				-3.25260853767395,
				-0.6648357510566711,
				0.422081857919693
			]
		},
		{
			"children":[
				14,
				15,
				16
			],
			"mesh":17,
			"name":"OBSTACLE_killdesk",
			"translation":[
				0,
				0.6648357510566711,
				-0.40190890431404114
			]
		}
	],
	"materials":[
		{
			"doubleSided":true,
			"name":"Palette",
			"pbrMetallicRoughness":{
				"baseColorTexture":{
					"index":0
				},
				"metallicFactor":0,
				"roughnessFactor":0.5
			}
		}
	],
	"meshes":[
		{
			"name":"Plane.002",
			"primitives":[
				{
					"attributes":{
						"POSITION":0,
						"NORMAL":1,
						"TEXCOORD_0":2
					},
					"indices":3,
					"material":0
				}
			]
		},
		{
			"name":"Cylinder.001",
			"primitives":[
				{
					"attributes":{
						"POSITION":4,
						"NORMAL":5,
						"TEXCOORD_0":6
					},
					"indices":7,
					"material":0
				}
			]
		},
		{
			"name":"Plane.001",
			"primitives":[
				{
					"attributes":{
						"POSITION":8,
						"NORMAL":9,
						"TEXCOORD_0":10
					},
					"indices":11,
					"material":0
				}
			]
		},
		{
			"name":"Cylinder.002",
			"primitives":[
				{
					"attributes":{
						"POSITION":12,
						"NORMAL":13,
						"TEXCOORD_0":14
					},
					"indices":7,
					"material":0
				}
			]
		},
		{
			"name":"Plane.004",
			"primitives":[
				{
					"attributes":{
						"POSITION":15,
						"NORMAL":16,
						"TEXCOORD_0":17
					},
					"indices":11,
					"material":0
				}
			]
		},
		{
			"name":"Cube.003",
			"primitives":[
				{
					"attributes":{
						"POSITION":18,
						"NORMAL":19,
						"TEXCOORD_0":20
					},
					"indices":21,
					"material":0
				}
			]
		},
		{
			"name":"Cube.002",
			"primitives":[
				{
					"attributes":{
						"POSITION":22,
						"NORMAL":23,
						"TEXCOORD_0":24
					},
					"indices":21,
					"material":0
				}
			]
		},
		{
			"name":"Plane",
			"primitives":[
				{
					"attributes":{
						"POSITION":25,
						"NORMAL":26,
						"TEXCOORD_0":27
					},
					"indices":11,
					"material":0
				}
			]
		},
		{
			"name":"plane",
			"primitives":[
				{
					"attributes":{
						"POSITION":28,
						"NORMAL":29,
						"TEXCOORD_0":30
					},
					"indices":11,
					"material":0
				}
			]
		},
		{
			"name":"Cube.011",
			"primitives":[
				{
					"attributes":{
						"POSITION":31,
						"NORMAL":32,
						"TEXCOORD_0":33
					},
					"indices":21
				}
			]
		},
		{
			"name":"Cube.009",
			"primitives":[
				{
					"attributes":{
						"POSITION":34,
						"NORMAL":35,
						"TEXCOORD_0":36
					},
					"indices":21
				}
			]
		},
		{
			"name":"Cube.012",
			"primitives":[
				{
					"attributes":{
						"POSITION":37,
						"NORMAL":38,
						"TEXCOORD_0":39
					},
					"indices":21
				}
			]
		},
		{
			"name":"Cube.010",
			"primitives":[
				{
					"attributes":{
						"POSITION":40,
						"NORMAL":41,
						"TEXCOORD_0":42
					},
					"indices":21
				}
			]
		},
		{
			"name":"Cube.013",
			"primitives":[
				{
					"attributes":{
						"POSITION":43,
						"NORMAL":44,
						"TEXCOORD_0":45
					},
					"indices":21
				}
			]
		},
		{
			"name":"Cube",
			"primitives":[
				{
					"attributes":{
						"POSITION":46,
						"NORMAL":47,
						"TEXCOORD_0":48
					},
					"indices":49
				}
			]
		},
		{
			"name":"Cube.005",
			"primitives":[
				{
					"attributes":{
						"POSITION":50,
						"NORMAL":51,
						"TEXCOORD_0":52
					},
					"indices":21
				}
			]
		},
		{
			"name":"Cube.004",
			"primitives":[
				{
					"attributes":{
						"POSITION":53,
						"NORMAL":54,
						"TEXCOORD_0":55
					},
					"indices":49
				}
			]
		},
		{
			"name":"OBSTACLE_killTopdesk",
			"primitives":[
				{
					"attributes":{
						"POSITION":56,
						"NORMAL":57,
						"TEXCOORD_0":58
					},
					"indices":21
				}
			]
		}
	],
	"textures":[
		{
			"sampler":0,
			"source":0
		}
	],
	"images":[
		{
			"mimeType":"image/png",
			"name":"Palette42Run",
			"uri":"Palette42Run.png"
		}
	],
	"accessors":[
		{
			"bufferView":0,
			"componentType":5126,
			"count":4,
			"max":[
				-0.0602649450302124,
				6.545619157805049e-08,
				1.2984737157821655
			],
			"min":[
				-0.8261803388595581,
				1.5435100308991423e-08,
				-1.3742616176605225
			],
			"type":"VEC3"
		},
		{
			"bufferView":1,
			"componentType":5126,
			"count":4,
			"type":"VEC3"
		},
		{
			"bufferView":2,
			"componentType":5126,
			"count":4,
			"type":"VEC2"
		},
		{
			"bufferView":3,
			"componentType":5123,
			"count":6,
			"type":"SCALAR"
		},
		{
			"bufferView":4,
			"componentType":5126,
			"count":50,
			"max":[
				1,
				22.322349548339844,
				1
			],
			"min":[
				-1,
				-1,
				-1
			],
			"type":"VEC3"
		},
		{
			"bufferView":5,
			"componentType":5126,
			"count":50,
			"type":"VEC3"
		},
		{
			"bufferView":6,
			"componentType":5126,
			"count":50,
			"type":"VEC2"
		},
		{
			"bufferView":7,
			"componentType":5123,
			"count":132,
			"type":"SCALAR"
		},
		{
			"bufferView":8,
			"componentType":5126,
			"count":24,
			"max":[
				1,
				0,
				1
			],
			"min":[
				-1,
				-0.07999999076128006,
				-0.3998876214027405
			],
			"type":"VEC3"
		},
		{
			"bufferView":9,
			"componentType":5126,
			"count":24,
			"type":"VEC3"
		},
		{
			"bufferView":10,
			"componentType":5126,
			"count":24,
			"type":"VEC2"
		},
		{
			"bufferView":11,
			"componentType":5123,
			"count":36,
			"type":"SCALAR"
		},
		{
			"bufferView":12,
			"componentType":5126,
			"count":50,
			"max":[
				1,
				22.322349548339844,
				1
			],
			"min":[
				-1,
				-1,
				-1
			],
			"type":"VEC3"
		},
		{
			"bufferView":13,
			"componentType":5126,
			"count":50,
			"type":"VEC3"
		},
		{
			"bufferView":14,
			"componentType":5126,
			"count":50,
			"type":"VEC2"
		},
		{
			"bufferView":15,
			"componentType":5126,
			"count":24,
			"max":[
				1,
				0,
				1
			],
			"min":[
				-1,
				-0.07999999076128006,
				-0.3998876214027405
			],
			"type":"VEC3"
		},
		{
			"bufferView":16,
			"componentType":5126,
			"count":24,
			"type":"VEC3"
		},
		{
			"bufferView":17,
			"componentType":5126,
			"count":24,
			"type":"VEC2"
		},
		{
			"bufferView":18,
			"componentType":5126,
			"count":24,
			"max":[
				0.9729382991790771,
				1.0160189867019653,
				2.368622303009033
			],
			"min":[
				-0.1373983472585678,
				0.07974565029144287,
				2.0868310928344727
			],
			"type":"VEC3"
		},
		{
			"bufferView":19,
			"componentType":5126,
			"count":24,
			"type":"VEC3"
		},
		{
			"bufferView":20,
			"componentType":5126,
			"count":24,
			"type":"VEC2"
		},
		{
			"bufferView":21,
			"componentType":5123,
			"count":36,
			"type":"SCALAR"
		},
		{
			"bufferView":22,
			"componentType":5126,
			"count":24,
			"max":[
				0.9729382991790771,
				1.0160189867019653,
				2.368622303009033
			],
			"min":[
				-0.1373983472585678,
				0.07974565029144287,
				2.0868310928344727
			],
			"type":"VEC3"
		},
		{
			"bufferView":23,
			"componentType":5126,
			"count":24,
			"type":"VEC3"
		},
		{
			"bufferView":24,
			"componentType":5126,
			"count":24,
			"type":"VEC2"
		},
		{
			"bufferView":25,
			"componentType":5126,
			"count":24,
			"max":[
				1.0349633693695068,
				1.0496084690093994,
				2.377305030822754
			],
			"min":[
				-0.3454752564430237,
				0.9696084856987,
				-1.122718095779419
			],
			"type":"VEC3"
		},
		{
			"bufferView":26,
			"componentType":5126,
			"count":24,
			"type":"VEC3"
		},
		{
			"bufferView":27,
			"componentType":5126,
			"count":24,
			"type":"VEC2"
		},
		{
			"bufferView":28,
			"componentType":5126,
			"count":24,
			"max":[
				0.751987874507904,
				-0.14417241513729095,
				1.7597436904907227
			],
			"min":[
				-0.751987874507904,
				-0.1591724157333374,
				-1.7616100311279297
			],
			"type":"VEC3"
		},
		{
			"bufferView":29,
			"componentType":5126,
			"count":24,
			"type":"VEC3"
		},
		{
			"bufferView":30,
			"componentType":5126,
			"count":24,
			"type":"VEC2"
		},
		{
			"bufferView":31,
			"componentType":5126,
			"count":24,
			"max":[
				1,
				1,
				1.4488998651504517
			],
			"min":[
				0.8475865125656128,
				0.8108837604522705,
				-1.561388373374939
			],
			"type":"VEC3"
		},
		{
			"bufferView":32,
			"componentType":5126,
			"count":24,
			"type":"VEC3"
		},
		{
			"bufferView":33,
			"componentType":5126,
			"count":24,
			"type":"VEC2"
		},
		{
			"bufferView":34,
			"componentType":5126,
			"count":24,
			"max":[
				0.31746166944503784,
				1,
				0.8777662515640259
			],
			"min":[
				-0.180636465549469,
				-0.5245588421821594,
				-0.9175984859466553
			],
			"type":"VEC3"
		},
		{
			"bufferView":35,
			"componentType":5126,
			"count":24,
			"type":"VEC3"
		},
		{
			"bufferView":36,
			"componentType":5126,
			"count":24,
			"type":"VEC2"
		},
		{
			"bufferView":37,
			"componentType":5126,
			"count":24,
			"max":[
				1,
				1,
				1.4488998651504517
			],
			"min":[
				0.8475865125656128,
				0.8108837604522705,
				-1.561388373374939
			],
			"type":"VEC3"
		},
		{
			"bufferView":38,
			"componentType":5126,
			"count":24,
			"type":"VEC3"
		},
		{
			"bufferView":39,
			"componentType":5126,
			"count":24,
			"type":"VEC2"
		},
		{
			"bufferView":40,
			"componentType":5126,
			"count":24,
			"max":[
				0.31746166944503784,
				1,
				0.8777662515640259
			],
			"min":[
				-0.180636465549469,
				-0.5245588421821594,
				-0.9175984859466553
			],
			"type":"VEC3"
		},
		{
			"bufferView":41,
			"componentType":5126,
			"count":24,
			"type":"VEC3"
		},
		{
			"bufferView":42,
			"componentType":5126,
			"count":24,
			"type":"VEC2"
		},
		{
			"bufferView":43,
			"componentType":5126,
			"count":24,
			"max":[
				2.1491217613220215,
				1,
				-0.7808083295822144
			],
			"min":[
				-2.3097822666168213,
				-0.5235142707824707,
				-1
			],
			"type":"VEC3"
		},
		{
			"bufferView":44,
			"componentType":5126,
			"count":24,
			"type":"VEC3"
		},
		{
			"bufferView":45,
			"componentType":5126,
			"count":24,
			"type":"VEC2"
		},
		{
			"bufferView":46,
			"componentType":5126,
			"count":28,
			"max":[
				0.9494085907936096,
				1.520696759223938,
				-0.6912089586257935
			],
			"min":[
				0.4814479649066925,
				-0.024083316326141357,
				-1.004748821258545
			],
			"type":"VEC3"
		},
		{
			"bufferView":47,
			"componentType":5126,
			"count":28,
			"type":"VEC3"
		},
		{
			"bufferView":48,
			"componentType":5126,
			"count":28,
			"type":"VEC2"
		},
		{
			"bufferView":49,
			"componentType":5123,
			"count":42,
			"type":"SCALAR"
		},
		{
			"bufferView":50,
			"componentType":5126,
			"count":24,
			"max":[
				3.519253730773926,
				0.9662356376647949,
				1
			],
			"min":[
				-3.519857168197632,
				0.9432763457298279,
				0.7495243549346924
			],
			"type":"VEC3"
		},
		{
			"bufferView":51,
			"componentType":5126,
			"count":24,
			"type":"VEC3"
		},
		{
			"bufferView":52,
			"componentType":5126,
			"count":24,
			"type":"VEC2"
		},
		{
			"bufferView":53,
			"componentType":5126,
			"count":28,
			"max":[
				0.9494085907936096,
				1.520696759223938,
				-0.6912089586257935
			],
			"min":[
				0.4814479649066925,
				-0.024083316326141357,
				-1.004748821258545
			],
			"type":"VEC3"
		},
		{
			"bufferView":54,
			"componentType":5126,
			"count":28,
			"type":"VEC3"
		},
		{
			"bufferView":55,
			"componentType":5126,
			"count":28,
			"type":"VEC2"
		},
		{
			"bufferView":56,
			"componentType":5126,
			"count":24,
			"max":[
				3.5087637901306152,
				1,
				-0.7309656143188477
			],
			"min":[
				-3.5248420238494873,
				0.8518719673156738,
				-1.05177903175354
			],
			"type":"VEC3"
		},
		{
			"bufferView":57,
			"componentType":5126,
			"count":24,
			"type":"VEC3"
		},
		{
			"bufferView":58,
			"componentType":5126,
			"count":24,
			"type":"VEC2"
		}
	],
	"bufferViews":[
		{
			"buffer":0,
			"byteLength":48,
			"byteOffset":0,
			"target":34962
		},
		{
			"buffer":0,
			"byteLength":48,
			"byteOffset":48,
			"target":34962
		},
		{
			"buffer":0,
			"byteLength":32,
			"byteOffset":96,
			"target":34962
		},
		{
			"buffer":0,
			"byteLength":12,
			"byteOffset":128,
			"target":34963
		},
		{
			"buffer":0,
			"byteLength":600,
			"byteOffset":140,
			"target":34962
		},
		{
			"buffer":0,
			"byteLength":600,
			"byteOffset":740,
			"target":34962
		},
		{
			"buffer":0,
			"byteLength":400,
			"byteOffset":1340,
			"target":34962
		},
		{
			"buffer":0,
			"byteLength":264,
			"byteOffset":1740,
			"target":34963
		},
		{
			"buffer":0,
			"byteLength":288,
			"byteOffset":2004,
			"target":34962
		},
		{
			"buffer":0,
			"byteLength":288,
			"byteOffset":2292,
			"target":34962
		},
		{
			"buffer":0,
			"byteLength":192,
			"byteOffset":2580,
			"target":34962
		},
		{
			"buffer":0,
			"byteLength":72,
			"byteOffset":2772,
			"target":34963
		},
		{
			"buffer":0,
			"byteLength":600,
			"byteOffset":2844,
			"target":34962
		},
		{
			"buffer":0,
			"byteLength":600,
			"byteOffset":3444,
			"target":34962
		},
		{
			"buffer":0,
			"byteLength":400,
			"byteOffset":4044,
			"target":34962
		},
		{
			"buffer":0,
			"byteLength":288,
			"byteOffset":4444,
			"target":34962
		},
		{
			"buffer":0,
			"byteLength":288,
			"byteOffset":4732,
			"target":34962
		},
		{
			"buffer":0,
			"byteLength":192,
			"byteOffset":5020,
			"target":34962
		},
		{
			"buffer":0,
			"byteLength":288,
			"byteOffset":5212,
			"target":34962
		},
		{
			"buffer":0,
			"byteLength":288,
			"byteOffset":5500,
			"target":34962
		},
		{
			"buffer":0,
			"byteLength":192,
			"byteOffset":5788,
			"target":34962
		},
		{
			"buffer":0,
			"byteLength":72,
			"byteOffset":5980,
			"target":34963
		},
		{
			"buffer":0,
			"byteLength":288,
			"byteOffset":6052,
			"target":34962
		},
		{
			"buffer":0,
			"byteLength":288,
			"byteOffset":6340,
			"target":34962
		},
		{
			"buffer":0,
			"byteLength":192,
			"byteOffset":6628,
			"target":34962
		},
		{
			"buffer":0,
			"byteLength":288,
			"byteOffset":6820,
			"target":34962
		},
		{
			"buffer":0,
			"byteLength":288,
			"byteOffset":7108,
			"target":34962
		},
		{
			"buffer":0,
			"byteLength":192,
			"byteOffset":7396,
			"target":34962
		},
		{
			"buffer":0,
			"byteLength":288,
			"byteOffset":7588,
			"target":34962
		},
		{
			"buffer":0,
			"byteLength":288,
			"byteOffset":7876,
			"target":34962
		},
		{
			"buffer":0,
			"byteLength":192,
			"byteOffset":8164,
			"target":34962
		},
		{
			"buffer":0,
			"byteLength":288,
			"byteOffset":8356,
			"target":34962
		},
		{
			"buffer":0,
			"byteLength":288,
			"byteOffset":8644,
			"target":34962
		},
		{
			"buffer":0,
			"byteLength":192,
			"byteOffset":8932,
			"target":34962
		},
		{
			"buffer":0,
			"byteLength":288,
			"byteOffset":9124,
			"target":34962
		},
		{
			"buffer":0,
			"byteLength":288,
			"byteOffset":9412,
			"target":34962
		},
		{
			"buffer":0,
			"byteLength":192,
			"byteOffset":9700,
			"target":34962
		},
		{
			"buffer":0,
			"byteLength":288,
			"byteOffset":9892,
			"target":34962
		},
		{
			"buffer":0,
			"byteLength":288,
			"byteOffset":10180,
			"target":34962
		},
		{
			"buffer":0,
			"byteLength":192,
			"byteOffset":10468,
			"target":34962
		},
		{
			"buffer":0,
			"byteLength":288,
			"byteOffset":10660,
			"target":34962
		},
		{
			"buffer":0,
			"byteLength":288,
			"byteOffset":10948,
			"target":34962
		},
		{
			"buffer":0,
			"byteLength":192,
			"byteOffset":11236,
			"target":34962
		},
		{
			"buffer":0,
			"byteLength":288,
			"byteOffset":11428,
			"target":34962
		},
		{
			"buffer":0,
			"byteLength":288,
			"byteOffset":11716,
			"target":34962
		},
		{
			"buffer":0,
			"byteLength":192,
			"byteOffset":12004,
			"target":34962
		},
		{
			"buffer":0,
			"byteLength":336,
			"byteOffset":12196,
			"target":34962
		},
		{
			"buffer":0,
			"byteLength":336,
			"byteOffset":12532,
			"target":34962
		},
		{
			"buffer":0,
			"byteLength":224,
			"byteOffset":12868,
			"target":34962
		},
		{
			"buffer":0,
			"byteLength":84,
			"byteOffset":13092,
			"target":34963
		},
		{
			"buffer":0,
			"byteLength":288,
			"byteOffset":13176,
			"target":34962
		},
		{
			"buffer":0,
			"byteLength":288,
			"byteOffset":13464,
			"target":34962
		},
		{
			"buffer":0,
			"byteLength":192,
			"byteOffset":13752,
			"target":34962
		},
		{
			"buffer":0,
			"byteLength":336,
			"byteOffset":13944,
			"target":34962
		},
		{
			"buffer":0,
			"byteLength":336,
			"byteOffset":14280,
			"target":34962
		},
		{
			"buffer":0,
			"byteLength":224,
			"byteOffset":14616,
			"target":34962
		},
		{
			"buffer":0,
			"byteLength":288,
			"byteOffset":14840,
			"target":34962
		},
		{
			"buffer":0,
			"byteLength":288,
			"byteOffset":15128,
			"target":34962
		},
		{
			"buffer":0,
			"byteLength":192,
			"byteOffset":15416,
			"target":34962
		}
	],
	"samplers":[
		{
			"magFilter":9729,
			"minFilter":9987
		}
	],
	"buffers":[
		{
			"byteLength":15608,
			"uri":"Obstacles.bin"
		}
	]
}
