{
	"asset":{
		"generator":"Khronos glTF Blender I/O v5.1.20",
		"version":"2.0"
	},
	"scene":0,
	"scenes":[
		{
			"name":"Scene",
			"nodes":[
				0,
				1,
				2
			]
		}
	],
	"nodes":[
		{
			"mesh":0,
			"name":"RVents3",
			"rotation":[
				0,
				-0.7071067094802856,
				0,
				0.7071068286895752
			],
			"scale":[
				0.3084999918937683,
				0.3789902627468109,
				1
			],
			"translation":[
				0.2950918972492218,
				1.5884863138198853,
				-0.002770334482192993
			]
		},
		{
			"mesh":1,
			"name":"RVents1",
			"rotation":[
				0,
				-0.7071067094802856,
				0,
				0.7071068286895752
			],
			"scale":[
				0.3084999918937683,
				0.3789902627468109,
				1
			],
			"translation":[
				0.4551074504852295,
				1.5903717279434204,
				-0.08189815282821655
			]
		},
		{
			"mesh":2,
			"name":"RVents2",
			"rotation":[
				0,
				-0.7071067094802856,
				0,
				0.7071068286895752
			],
			"scale":[
				0.3022664487361908,
				0.3938526511192322,
				0.9911903738975525
			],
			"translation":[
				0.3044006824493408,
				1.5884863138198853,
				0.03758591413497925
			]
		}
	],
	"materials":[
		{
			"doubleSided":true,
			"name":"Material",
			"pbrMetallicRoughness":{
				"baseColorTexture":{
					"index":0
				},
				"metallicFactor":0,
				"roughnessFactor":0.5
			}
		},
		{
			"doubleSided":true,
			"name":"Palette",
			"pbrMetallicRoughness":{
				"baseColorTexture":{
					"index":1
				},
				"metallicFactor":0,
				"roughnessFactor":0.5
			}
		}
	],
	"meshes":[
		{
			"name":"Cube",
			"primitives":[
				{
					"attributes":{
						"POSITION":0,
						"NORMAL":1,
						"TEXCOORD_0":2
					},
					"indices":3,
					"material":0
				},
				{
					"attributes":{
						"POSITION":4,
						"NORMAL":5,
						"TEXCOORD_0":6
					},
					"indices":7,
					"material":1
				}
			]
		},
		{
			"name":"Cube.003",
			"primitives":[
				{
					"attributes":{
						"POSITION":8,
						"NORMAL":9,
						"TEXCOORD_0":10
					},
					"indices":11,
					"material":0
				},
				{
					"attributes":{
						"POSITION":12,
						"NORMAL":13,
						"TEXCOORD_0":14
					},
					"indices":15,
					"material":1
				}
			]
		},
		{
			"name":"Cube.005",
			"primitives":[
				{
					"attributes":{
						"POSITION":16,
						"NORMAL":17,
						"TEXCOORD_0":18
					},
					"indices":19,
					"material":0
				},
				{
					"attributes":{
						"POSITION":20,
						"NORMAL":21,
						"TEXCOORD_0":22
					},
					"indices":23,
					"material":1
				}
			]
		}
	],
	"textures":[
		{
			"sampler":0,
			"source":0
		},
		{
			"sampler":0,
			"source":0
		}
	],
	"images":[
		{
			"mimeType":"image/png",
			"name":"Palette42Run",
			"uri":"Palette42Run.png"
		}
	],
	"accessors":[
		{
			"bufferView":0,
			"componentType":5126,
			"count":138,
			"max":[
				1.0524955987930298,
				1,
				0.00395155930891633
			],
			"min":[
				-0.6343409419059753,
				0.4246075749397278,
				-2.2178473472595215
			],
			"type":"VEC3"
		},
		{
			"bufferView":1,
			"componentType":5126,
			"count":138,
			"type":"VEC3"
		},
		{
			"bufferView":2,
			"componentType":5126,
			"count":138,
			"type":"VEC2"
		},
		{
			"bufferView":3,
			"componentType":5123,
			"count":276,
			"type":"SCALAR"
		},
		{
			"bufferView":4,
			"componentType":5126,
			"count":714,
			"max":[
				1.0208443403244019,
				0.8178848028182983,
				-0.32087287306785583
			],
			"min":[
				-0.6026907563209534,
				0.44475966691970825,
				-1.8869876861572266
			],
			"type":"VEC3"
		},
		{
			"bufferView":5,
			"componentType":5126,
			"count":714,
			"type":"VEC3"
		},
		{
			"bufferView":6,
			"componentType":5126,
			"count":714,
			"type":"VEC2"
		},
		{
			"bufferView":7,
			"componentType":5123,
			"count":1410,
			"type":"SCALAR"
		},
		{
			"bufferView":8,
			"componentType":5126,
			"count":265,
			"max":[
				1.0290501117706299,
				1,
				0.17292654514312744
			],
			"min":[
				-0.27386465668678284,
				0.4411860406398773,
				-2.2178473472595215
			],
			"type":"VEC3"
		},
		{
			"bufferView":9,
			"componentType":5126,
			"count":265,
			"type":"VEC3"
		},
		{
			"bufferView":10,
			"componentType":5126,
			"count":265,
			"type":"VEC2"
		},
		{
			"bufferView":11,
			"componentType":5123,
			"count":516,
			"type":"SCALAR"
		},
		{
			"bufferView":12,
			"componentType":5126,
			"count":1002,
			"max":[
				1.021416187286377,
				0.7987121343612671,
				0.04991397634148598
			],
			"min":[
				-0.26566019654273987,
				0.44475916028022766,
				-2.0212621688842773
			],
			"type":"VEC3"
		},
		{
			"bufferView":13,
			"componentType":5126,
			"count":1002,
			"type":"VEC3"
		},
		{
			"bufferView":14,
			"componentType":5126,
			"count":1002,
			"type":"VEC2"
		},
		{
			"bufferView":15,
			"componentType":5123,
			"count":1974,
			"type":"SCALAR"
		},
		{
			"bufferView":16,
			"componentType":5126,
			"count":200,
			"max":[
				0.7783205509185791,
				1,
				-0.03112894296646118
			],
			"min":[
				-0.6120585799217224,
				0.4403636157512665,
				-2.2178473472595215
			],
			"type":"VEC3"
		},
		{
			"bufferView":17,
			"componentType":5126,
			"count":200,
			"type":"VEC3"
		},
		{
			"bufferView":18,
			"componentType":5126,
			"count":200,
			"type":"VEC2"
		},
		{
			"bufferView":19,
			"componentType":5123,
			"count":396,
			"type":"SCALAR"
		},
		{
			"bufferView":20,
			"componentType":5126,
			"count":1002,
			"max":[
				0.7693811655044556,
				0.7993122339248657,
				-0.16289126873016357
			],
			"min":[
				-0.6031205654144287,
				0.4453998804092407,
				-2.009951591491699
			],
			"type":"VEC3"
		},
		{
			"bufferView":21,
			"componentType":5126,
			"count":1002,
			"type":"VEC3"
		},
		{
			"bufferView":22,
			"componentType":5126,
			"count":1002,
			"type":"VEC2"
		},
		{
			"bufferView":23,
			"componentType":5123,
			"count":1974,
			"type":"SCALAR"
		}
	],
	"bufferViews":[
		{
			"buffer":0,
			"byteLength":1656,
			"byteOffset":0,
			"target":34962
		},
		{
			"buffer":0,
			"byteLength":1656,
			"byteOffset":1656,
			"target":34962
		},
		{
			"buffer":0,
			"byteLength":1104,
			"byteOffset":3312,
			"target":34962
		},
		{
			"buffer":0,
			"byteLength":552,
			"byteOffset":4416,
			"target":34963
		},
		{
			"buffer":0,
			"byteLength":8568,
			"byteOffset":4968,
			"target":34962
		},
		{
			"buffer":0,
			"byteLength":8568,
			"byteOffset":13536,
			"target":34962
		},
		{
			"buffer":0,
			"byteLength":5712,
			"byteOffset":22104,
			"target":34962
		},
		{
			"buffer":0,
			"byteLength":2820,
			"byteOffset":27816,
			"target":34963
		},
		{
			"buffer":0,
			"byteLength":3180,
			"byteOffset":30636,
			"target":34962
		},
		{
			"buffer":0,
			"byteLength":3180,
			"byteOffset":33816,
			"target":34962
		},
		{
			"buffer":0,
			"byteLength":2120,
			"byteOffset":36996,
			"target":34962
		},
		{
			"buffer":0,
			"byteLength":1032,
			"byteOffset":39116,
			"target":34963
		},
		{
			"buffer":0,
			"byteLength":12024,
			"byteOffset":40148,
			"target":34962
		},
		{
			"buffer":0,
			"byteLength":12024,
			"byteOffset":52172,
			"target":34962
		},
		{
			"buffer":0,
			"byteLength":8016,
			"byteOffset":64196,
			"target":34962
		},
		{
			"buffer":0,
			"byteLength":3948,
			"byteOffset":72212,
			"target":34963
		},
		{
			"buffer":0,
			"byteLength":2400,
			"byteOffset":76160,
			"target":34962
		},
		{
			"buffer":0,
			"byteLength":2400,
			"byteOffset":78560,
			"target":34962
		},
		{
			"buffer":0,
			"byteLength":1600,
			"byteOffset":80960,
			"target":34962
		},
		{
			"buffer":0,
			"byteLength":792,
			"byteOffset":82560,
			"target":34963
		},
		{
			"buffer":0,
			"byteLength":12024,
			"byteOffset":83352,
			"target":34962
		},
		{
			"buffer":0,
			"byteLength":12024,
			"byteOffset":95376,
			"target":34962
		},
		{
			"buffer":0,
			"byteLength":8016,
			"byteOffset":107400,
			"target":34962
		},
		{
			"buffer":0,
			"byteLength":3948,
			"byteOffset":115416,
			"target":34963
		}
	],
	"samplers":[
		{
			"magFilter":9729,
			"minFilter":9987
		}
	],
	"buffers":[
		{
			"byteLength":119364,
			"uri":"RandomVents.bin"
		}
	]
}
