{
	"asset":{
		"generator":"Khronos glTF Blender I/O v5.2.39",
		"version":"2.0"
	},
	"extensionsUsed":[
		"KHR_materials_emissive_strength"
	],
	"scene":0,
	"scenes":[
		{
			"name":"Scene",
			"nodes":[
				0,
				1,
				2,
				3,
				4
			]
		}
	],
	"nodes":[
		{
			"mesh":0,
			"name":"BG_1",
			"scale":[
				0.22208285331726074,
				0.22208285331726074,
				0.22208285331726074
			],
			"translation":[
				0,
				2.4594762325286865,
				0.7649855613708496
			]
		},
		{
			"mesh":1,
			"name":"BG_2",
			"scale":[
				0.22208285331726074,
				0.22208285331726074,
				0.22208285331726074
			],
			"translation":[
				0,
				2.4594762325286865,
				0.7649855613708496
			]
		},
		{
			"mesh":2,
			"name":"BG_3",
			"scale":[
				0.22208285331726074,
				0.22208285331726074,
				0.22208285331726074
			],
			"translation":[
				0,
				2.4594762325286865,
				0.7649855613708496
			]
		},
		{
			"mesh":3,
			"name":"BG_4",
			"scale":[
				0.22208285331726074,
				0.22208285331726074,
				0.22208285331726074
			],
			"translation":[
				0,
				2.4594762325286865,
				0.7649855613708496
			]
		},
		{
			"mesh":4,
			"name":"OBSTACLE_killScreen",
			"translation":[
				0.05733523517847061,
				3.1560728549957275,
				0.07854942232370377
			]
		}
	],
	"materials":[
		{
			"doubleSided":true,
			"emissiveFactor":[
				1,
				1,
				1
			],
			"emissiveTexture":{
				"index":0
			},
			"extensions":{
				"KHR_materials_emissive_strength":{
					"emissiveStrength":20
				}
			},
			"name":"Material",
			"pbrMetallicRoughness":{
				"baseColorFactor":[
					0,
					0,
					0,
					1
				],
				"metallicFactor":0,
				"roughnessFactor":0.5
			}
		},
		{
			"doubleSided":true,
			"name":"Palette.001",
			"pbrMetallicRoughness":{
				"baseColorTexture":{
					"index":1
				},
				"metallicFactor":0,
				"roughnessFactor":0.5
			}
		},
		{
			"doubleSided":true,
			"emissiveFactor":[
				1,
				1,
				1
			],
			"emissiveTexture":{
				"index":2
			},
			"name":"Material.003",
			"pbrMetallicRoughness":{
				"baseColorFactor":[
					0,
					0,
					0,
					1
				],
				"metallicFactor":0,
				"roughnessFactor":0.5
			}
		},
		{
			"doubleSided":true,
			"emissiveFactor":[
				1,
				1,
				1
			],
			"emissiveTexture":{
				"index":3
			},
			"name":"Material.001",
			"pbrMetallicRoughness":{
				"baseColorFactor":[
					0,
					0,
					0,
					1
				],
				"metallicFactor":0,
				"roughnessFactor":0.5
			}
		},
		{
			"doubleSided":true,
			"emissiveFactor":[
				1,
				1,
				1
			],
			"emissiveTexture":{
				"index":4
			},
			"name":"Material.002",
			"pbrMetallicRoughness":{
				"baseColorFactor":[
					0,
					0,
					0,
					1
				],
				"metallicFactor":0,
				"roughnessFactor":0.5
			}
		}
	],
	"meshes":[
		{
			"name":"Cube.001",
			"primitives":[
				{
					"attributes":{
						"POSITION":0,
						"NORMAL":1,
						"TEXCOORD_0":2
					},
					"indices":3,
					"material":0
				},
				{
					"attributes":{
						"POSITION":4,
						"NORMAL":5,
						"TEXCOORD_0":6
					},
					"indices":7,
					"material":1
				}
			]
		},
		{
			"name":"Cube.002",
			"primitives":[
				{
					"attributes":{
						"POSITION":8,
						"NORMAL":9,
						"TEXCOORD_0":10
					},
					"indices":7,
					"material":1
				},
				{
					"attributes":{
						"POSITION":11,
						"NORMAL":12,
						"TEXCOORD_0":13
					},
					"indices":3,
					"material":2
				}
			]
		},
		{
			"name":"Cube.003",
			"primitives":[
				{
					"attributes":{
						"POSITION":14,
						"NORMAL":15,
						"TEXCOORD_0":16
					},
					"indices":7,
					"material":1
				},
				{
					"attributes":{
						"POSITION":17,
						"NORMAL":18,
						"TEXCOORD_0":19
					},
					"indices":3,
					"material":3
				}
			]
		},
		{
			"name":"Cube.004",
			"primitives":[
				{
					"attributes":{
						"POSITION":20,
						"NORMAL":21,
						"TEXCOORD_0":22
					},
					"indices":7,
					"material":1
				},
				{
					"attributes":{
						"POSITION":23,
						"NORMAL":24,
						"TEXCOORD_0":25
					},
					"indices":3,
					"material":4
				}
			]
		},
		{
			"name":"Cube",
			"primitives":[
				{
					"attributes":{
						"POSITION":26,
						"NORMAL":27,
						"TEXCOORD_0":28
					},
					"indices":29
				}
			]
		}
	],
	"textures":[
		{
			"sampler":0,
			"source":0
		},
		{
			"sampler":0,
			"source":1
		},
		{
			"sampler":0,
			"source":2
		},
		{
			"sampler":0,
			"source":3
		},
		{
			"sampler":0,
			"source":4
		}
	],
	"images":[
		{
			"mimeType":"image/jpeg",
			"name":"42",
			"uri":"42.jpg"
		},
		{
			"mimeType":"image/png",
			"name":"Palette42Run",
			"uri":"Palette42Run.png"
		},
		{
			"mimeType":"image/jpeg",
			"name":"linux",
			"uri":"linux.jpg"
		},
		{
			"mimeType":"image/jpeg",
			"name":"windows",
			"uri":"windows.jpg"
		},
		{
			"mimeType":"image/jpeg",
			"name":"moulinette",
			"uri":"moulinette.jpg"
		}
	],
	"accessors":[
		{
			"bufferView":0,
			"componentType":5126,
			"count":4,
			"max":[
				2.7276628017425537,
				1.3587371110916138,
				-0.21093595027923584
			],
			"min":[
				-2.953421115875244,
				-1.3587371110916138,
				-0.21093595027923584
			],
			"type":"VEC3"
		},
		{
			"bufferView":1,
			"componentType":5126,
			"count":4,
			"type":"VEC3"
		},
		{
			"bufferView":2,
			"componentType":5126,
			"count":4,
			"type":"VEC2"
		},
		{
			"bufferView":3,
			"componentType":5123,
			"count":6,
			"type":"SCALAR"
		},
		{
			"bufferView":4,
			"componentType":5126,
			"count":28,
			"max":[
				2.8292999267578125,
				1.460374355316162,
				-0.033134713768959045
			],
			"min":[
				-3.055058240890503,
				-1.460374355316162,
				-0.21093595027923584
			],
			"type":"VEC3"
		},
		{
			"bufferView":5,
			"componentType":5126,
			"count":28,
			"type":"VEC3"
		},
		{
			"bufferView":6,
			"componentType":5126,
			"count":28,
			"type":"VEC2"
		},
		{
			"bufferView":7,
			"componentType":5123,
			"count":54,
			"type":"SCALAR"
		},
		{
			"bufferView":8,
			"componentType":5126,
			"count":28,
			"max":[
				2.8292999267578125,
				1.460374355316162,
				-0.033134713768959045
			],
			"min":[
				-3.055058240890503,
				-1.460374355316162,
				-0.21093595027923584
			],
			"type":"VEC3"
		},
		{
			"bufferView":9,
			"componentType":5126,
			"count":28,
			"type":"VEC3"
		},
		{
			"bufferView":10,
			"componentType":5126,
			"count":28,
			"type":"VEC2"
		},
		{
			"bufferView":11,
			"componentType":5126,
			"count":4,
			"max":[
				2.7276628017425537,
				1.3587371110916138,
				-0.21093595027923584
			],
			"min":[
				-2.953421115875244,
				-1.3587371110916138,
				-0.21093595027923584
			],
			"type":"VEC3"
		},
		{
			"bufferView":12,
			"componentType":5126,
			"count":4,
			"type":"VEC3"
		},
		{
			"bufferView":13,
			"componentType":5126,
			"count":4,
			"type":"VEC2"
		},
		{
			"bufferView":14,
			"componentType":5126,
			"count":28,
			"max":[
				2.8292999267578125,
				1.460374355316162,
				-0.033134713768959045
			],
			"min":[
				-3.055058240890503,
				-1.460374355316162,
				-0.21093595027923584
			],
			"type":"VEC3"
		},
		{
			"bufferView":15,
			"componentType":5126,
			"count":28,
			"type":"VEC3"
		},
		{
			"bufferView":16,
			"componentType":5126,
			"count":28,
			"type":"VEC2"
		},
		{
			"bufferView":17,
			"componentType":5126,
			"count":4,
			"max":[
				2.7276628017425537,
				1.3587371110916138,
				-0.21093595027923584
			],
			"min":[
				-2.953421115875244,
				-1.3587371110916138,
				-0.21093595027923584
			],
			"type":"VEC3"
		},
		{
			"bufferView":18,
			"componentType":5126,
			"count":4,
			"type":"VEC3"
		},
		{
			"bufferView":19,
			"componentType":5126,
			"count":4,
			"type":"VEC2"
		},
		{
			"bufferView":20,
			"componentType":5126,
			"count":28,
			"max":[
				2.8292999267578125,
				1.460374355316162,
				-0.033134713768959045
			],
			"min":[
				-3.055058240890503,
				-1.460374355316162,
				-0.21093595027923584
			],
			"type":"VEC3"
		},
		{
			"bufferView":21,
			"componentType":5126,
			"count":28,
			"type":"VEC3"
		},
		{
			"bufferView":22,
			"componentType":5126,
			"count":28,
			"type":"VEC2"
		},
		{
			"bufferView":23,
			"componentType":5126,
			"count":4,
			"max":[
				2.7276628017425537,
				1.3587371110916138,
				-0.21093595027923584
			],
			"min":[
				-2.953421115875244,
				-1.3587371110916138,
				-0.21093595027923584
			],
			"type":"VEC3"
		},
		{
			"bufferView":24,
			"componentType":5126,
			"count":4,
			"type":"VEC3"
		},
		{
			"bufferView":25,
			"componentType":5126,
			"count":4,
			"type":"VEC2"
		},
		{
			"bufferView":26,
			"componentType":5126,
			"count":24,
			"max":[
				0.562423825263977,
				-0.39677906036376953,
				0.6646596789360046
			],
			"min":[
				-0.7318161129951477,
				-1,
				0.6366668939590454
			],
			"type":"VEC3"
		},
		{
			"bufferView":27,
			"componentType":5126,
			"count":24,
			"type":"VEC3"
		},
		{
			"bufferView":28,
			"componentType":5126,
			"count":24,
			"type":"VEC2"
		},
		{
			"bufferView":29,
			"componentType":5123,
			"count":36,
			"type":"SCALAR"
		}
	],
	"bufferViews":[
		{
			"buffer":0,
			"byteLength":48,
			"byteOffset":0,
			"target":34962
		},
		{
			"buffer":0,
			"byteLength":48,
			"byteOffset":48,
			"target":34962
		},
		{
			"buffer":0,
			"byteLength":32,
			"byteOffset":96,
			"target":34962
		},
		{
			"buffer":0,
			"byteLength":12,
			"byteOffset":128,
			"target":34963
		},
		{
			"buffer":0,
			"byteLength":336,
			"byteOffset":140,
			"target":34962
		},
		{
			"buffer":0,
			"byteLength":336,
			"byteOffset":476,
			"target":34962
		},
		{
			"buffer":0,
			"byteLength":224,
			"byteOffset":812,
			"target":34962
		},
		{
			"buffer":0,
			"byteLength":108,
			"byteOffset":1036,
			"target":34963
		},
		{
			"buffer":0,
			"byteLength":336,
			"byteOffset":1144,
			"target":34962
		},
		{
			"buffer":0,
			"byteLength":336,
			"byteOffset":1480,
			"target":34962
		},
		{
			"buffer":0,
			"byteLength":224,
			"byteOffset":1816,
			"target":34962
		},
		{
			"buffer":0,
			"byteLength":48,
			"byteOffset":2040,
			"target":34962
		},
		{
			"buffer":0,
			"byteLength":48,
			"byteOffset":2088,
			"target":34962
		},
		{
			"buffer":0,
			"byteLength":32,
			"byteOffset":2136,
			"target":34962
		},
		{
			"buffer":0,
			"byteLength":336,
			"byteOffset":2168,
			"target":34962
		},
		{
			"buffer":0,
			"byteLength":336,
			"byteOffset":2504,
			"target":34962
		},
		{
			"buffer":0,
			"byteLength":224,
			"byteOffset":2840,
			"target":34962
		},
		{
			"buffer":0,
			"byteLength":48,
			"byteOffset":3064,
			"target":34962
		},
		{
			"buffer":0,
			"byteLength":48,
			"byteOffset":3112,
			"target":34962
		},
		{
			"buffer":0,
			"byteLength":32,
			"byteOffset":3160,
			"target":34962
		},
		{
			"buffer":0,
			"byteLength":336,
			"byteOffset":3192,
			"target":34962
		},
		{
			"buffer":0,
			"byteLength":336,
			"byteOffset":3528,
			"target":34962
		},
		{
			"buffer":0,
			"byteLength":224,
			"byteOffset":3864,
			"target":34962
		},
		{
			"buffer":0,
			"byteLength":48,
			"byteOffset":4088,
			"target":34962
		},
		{
			"buffer":0,
			"byteLength":48,
			"byteOffset":4136,
			"target":34962
		},
		{
			"buffer":0,
			"byteLength":32,
			"byteOffset":4184,
			"target":34962
		},
		{
			"buffer":0,
			"byteLength":288,
			"byteOffset":4216,
			"target":34962
		},
		{
			"buffer":0,
			"byteLength":288,
			"byteOffset":4504,
			"target":34962
		},
		{
			"buffer":0,
			"byteLength":192,
			"byteOffset":4792,
			"target":34962
		},
		{
			"buffer":0,
			"byteLength":72,
			"byteOffset":4984,
			"target":34963
		}
	],
	"samplers":[
		{
			"magFilter":9729,
			"minFilter":9987
		}
	],
	"buffers":[
		{
			"byteLength":5056,
			"uri":"screens.bin"
		}
	]
}
